<!-- Created with Inkscape (http://www.inkscape.org/) -->
<svg xmlns="http://www.w3.org/2000/svg" height="32" width="64" version="1.1" viewBox="0 0 64.000006 32.000002"><g transform="translate(-183.24 -487.21)"><g fill="#333"><path style="" d="m205.12 516.3 3.8672-2.7148-0.2539-0.97656 6.1328-21.914-1.6406-0.50781-5.7031 20.82-7.8906-20.879-3.6328 1.7383 3.2812 8.7891-3.6719 10.352-7.8906-20.879-3.6328 1.7383 9.1211 24.434 3.8672-2.7148-0.25391-0.97656 3.2812-9.7461 5.0195 13.438z"/><path style="" d="m217.08 491.75v4.1211l3.6133-1.5039v-4.2969l-3.6133 1.6797zm-0.11718 8.2227v16.152l3.75-1.3281v-16.191l-3.75 1.3672z"/><path style="" d="m231.41 498.43q-1.9922 0.2539-3.0664 0.8789-1.0547 0.625-1.9727 1.6992-0.89844 1.0742-0.9375 2.8516-0.0391 1.7774 1.2305 2.8711 1.2891 1.0938 4.9414 2.3438t4.0234 2.4414q0.39063 1.1914-0.52734 2.0117-0.89844 0.80078-2.5586 0.60546-1.6602-0.21484-2.8906-1.0352-1.2305-0.83985-2.0312-1.9336-0.78125-1.1133-0.97656-1.9141l-3.0274 2.2656q0.66407 1.4844 1.6602 2.4805 0.99609 0.99609 2.5 1.6211 1.5234 0.625 3.6523 0.70312 2.1289 0.0977 3.7695-1.0547 1.6602-1.1719 2.5391-2.5391 0.87891-1.3672 0.82031-2.7344-0.0586-1.3867-1.25-2.5781-1.1719-1.1914-5.0781-2.5-3.8867-1.3086-4.0625-2.5195-0.15625-1.2109 1.3867-1.6406 1.543-0.44922 3.6524 0.68359t1.9727 1.7773l2.4609-2.5781q-0.76172-1.25-2.5-1.8555-1.7188-0.60547-3.7305-0.35156z"/></g></g></svg>
