<!-- Created with Inkscape (http://www.inkscape.org/) -->
<svg xmlns="http://www.w3.org/2000/svg" height="32" width="64" version="1.1" viewBox="0 0 64.000006 32.000002"><g transform="translate(-183.24 -487.21)"><g fill="#333"><path d="m198.37 490.49q-3.4961-0.0781-5.918 1.0352-2.4024 1.1133-4.8438 4.2578-2.4219 3.125-3.0859 6.7578-0.64453 3.6328 0.52734 6.2891 1.1719 2.6562 3.2422 4.5898 2.0898 1.9336 5.0781 2.7539 2.9883 0.82031 5.8008-0.0977 2.832-0.91797 6.9141-5.6641l-0.41016-0.21484q-4.6094 4.1406-10.039 2.2656-5.4297-1.875-7.168-6.9141-1.7383-5.0586 0.42969-8.3984t5.6836-3.3984q3.5352-0.0586 4.8242 1.2695 1.3086 1.3281 1.6211 2.2461l4.1602-2.207q-0.15625-1.3086-1.7383-2.9102t-5.0781-1.6602z"/><path d="m208.5 491.55v25.078l3.7891-1.6016v-11.758q1.8359-2.3828 4.668-1.7383 2.832 0.625 2.6953 3.5547v11.66l3.7109-1.5234v-11.191q-0.17578-5.0391-4.2578-5.293-4.082-0.25391-6.9922 3.6133l0.0195-12.266-3.6328 1.4648z"/><path d="m234.79 498.64q-2.6172-0.19531-5.5274 1.2891-2.8906 1.4844-2.5391 5.0586l4.4727-2.0117q-0.33204-2.4219 1.7969-2.832 2.1289-0.41016 3.3203 0.72265t1.0156 4.5508q-1.3086-0.85937-3.0859-1.0938-1.7578-0.2539-4.6484 1.2305t-3.6133 4.3555q-0.70312 2.8711 1.5039 4.8047 2.2266 1.9141 4.2969 1.8359 2.0703-0.0781 3.1055-0.89844 1.0352-0.82031 2.5-2.3242-0.0195 2.4805 0.56641 3.3984l3.8672-2.0703q-0.97657-1.1523-0.78125-2.9102v-8.1836q0.0781-1.9141-1.7774-3.3203t-4.4726-1.6016zm2.6367 9.2773v4.2774q-3.3203 2.6562-6.0352 1.0547-2.6953-1.6016-3.0664-3.9453-0.35156-2.3633 2.3438-2.4414 2.7148-0.0977 5 1.9726l1.7969-1.9336-0.0391 1.0156z"/></g></g></svg>
