<?xml version="1.0" encoding="UTF-8" standalone="no"?>
<!-- Created with Inkscape (http://www.inkscape.org/) -->

<svg
   xmlns:dc="http://purl.org/dc/elements/1.1/"
   xmlns:cc="http://creativecommons.org/ns#"
   xmlns:rdf="http://www.w3.org/1999/02/22-rdf-syntax-ns#"
   xmlns:svg="http://www.w3.org/2000/svg"
   xmlns="http://www.w3.org/2000/svg"
   xmlns:sodipodi="http://sodipodi.sourceforge.net/DTD/sodipodi-0.dtd"
   xmlns:inkscape="http://www.inkscape.org/namespaces/inkscape"
   width="64"
   height="32"
   viewBox="0 0 64.000006 32.000002"
   id="svg2"
   version="1.1"
   inkscape:version="0.91 r13725"
   sodipodi:docname="cha.inkscape.svg">
  <defs
     id="defs4" />
  <sodipodi:namedview
     id="base"
     pagecolor="#ffffff"
     bordercolor="#666666"
     borderopacity="1.0"
     inkscape:pageopacity="0.0"
     inkscape:pageshadow="2"
     inkscape:zoom="6.670707"
     inkscape:cx="24.660292"
     inkscape:cy="106.94316"
     inkscape:document-units="px"
     inkscape:current-layer="layer1"
     showgrid="true"
     fit-margin-top="1"
     fit-margin-left="0"
     fit-margin-right="1"
     fit-margin-bottom="1"
     inkscape:window-width="3840"
     inkscape:window-height="2037"
     inkscape:window-x="0"
     inkscape:window-y="49"
     inkscape:window-maximized="1"
     units="px"
     showborder="true"
     inkscape:showpageshadow="true"
     objecttolerance="10000">
    <inkscape:grid
       type="xygrid"
       id="grid4304"
       spacingx="31.999999"
       spacingy="32.000001" />
  </sodipodi:namedview>
  <metadata
     id="metadata7">
    <rdf:RDF>
      <cc:Work
         rdf:about="">
        <dc:format>image/svg+xml</dc:format>
        <dc:type
           rdf:resource="http://purl.org/dc/dcmitype/StillImage" />
        <dc:title></dc:title>
      </cc:Work>
    </rdf:RDF>
  </metadata>
  <g
     inkscape:label="Layer 1"
     inkscape:groupmode="layer"
     id="layer1"
     transform="translate(-183.24219,-487.20915)">
    <g
       style="font-style:normal;font-variant:normal;font-weight:normal;font-stretch:normal;font-size:40px;line-height:100%;font-family:'Kingthings Exeter';-inkscape-font-specification:'Kingthings Exeter, Normal';text-align:start;letter-spacing:0px;word-spacing:0px;writing-mode:lr-tb;text-anchor:start;fill:#333333;fill-opacity:1;stroke:none;stroke-width:1px;stroke-linecap:butt;stroke-linejoin:miter;stroke-opacity:1"
       id="text4340">
      <path
         d="m 198.36787,490.49457 q -3.49609,-0.0781 -5.91796,1.03515 -2.40235,1.11329 -4.84375,4.25782 -2.42188,3.125 -3.08594,6.75781 -0.64453,3.63281 0.52734,6.28906 1.17188,2.65625 3.24219,4.58985 2.08984,1.93359 5.07812,2.7539 2.98829,0.82031 5.80079,-0.0977 2.83203,-0.91797 6.91406,-5.66407 l -0.41016,-0.21484 q -4.60937,4.14062 -10.03906,2.26562 -5.42969,-1.875 -7.16797,-6.91406 -1.73828,-5.05859 0.42969,-8.39844 2.16797,-3.33984 5.68359,-3.39843 3.53516,-0.0586 4.82422,1.26953 1.30859,1.32812 1.62109,2.24609 l 4.16016,-2.20703 q -0.15625,-1.30859 -1.73828,-2.91016 -1.58203,-1.60156 -5.07813,-1.66015 z"
         style="fill:#333333"
         id="path4345"
         inkscape:connector-curvature="0" />
      <path
         d="m 208.50459,491.54926 0,25.07812 3.78907,-1.60156 0,-11.75781 q 1.83593,-2.38282 4.66796,-1.73829 2.83204,0.625 2.69532,3.55469 l 0,11.66016 3.71093,-1.52344 0,-11.19141 q -0.17578,-5.03906 -4.25781,-5.29296 -4.08203,-0.25391 -6.99219,3.61328 l 0.0195,-12.26563 -3.63282,1.46485 z"
         style="fill:#333333"
         id="path4347"
         inkscape:connector-curvature="0" />
      <path
         d="m 234.79366,498.6391 q -2.61719,-0.19531 -5.52735,1.28906 -2.89062,1.48438 -2.53906,5.0586 l 4.47266,-2.01172 q -0.33204,-2.42188 1.79687,-2.83203 2.12891,-0.41016 3.32031,0.72265 1.19141,1.13281 1.01563,4.55078 -1.3086,-0.85937 -3.08594,-1.09375 -1.75781,-0.2539 -4.64844,1.23047 -2.89062,1.48438 -3.61328,4.35547 -0.70312,2.87109 1.50391,4.80469 2.22656,1.91406 4.29687,1.83594 2.07032,-0.0781 3.10547,-0.89844 1.03516,-0.82031 2.5,-2.32422 -0.0195,2.48047 0.56641,3.39844 l 3.86719,-2.07032 q -0.97657,-1.15234 -0.78125,-2.91015 l 0,-8.1836 q 0.0781,-1.91406 -1.77735,-3.32031 -1.85547,-1.40625 -4.47265,-1.60156 z m 2.63671,9.27734 0,4.27735 q -3.32031,2.65625 -6.03515,1.05468 -2.69531,-1.60156 -3.06641,-3.94531 -0.35156,-2.36328 2.34375,-2.4414 2.71485,-0.0977 5,1.97265 l 1.79688,-1.93359 -0.0391,1.01562 z"
         style="fill:#333333"
         id="path4349"
         inkscape:connector-curvature="0" />
    </g>
  </g>
</svg>
