<!-- Created with Inkscape (http://www.inkscape.org/) -->
<svg xmlns="http://www.w3.org/2000/svg" height="32" width="64" version="1.1" viewBox="0 0 64.000006 32.000002"><g transform="translate(-183.24 -487.21)"><g fill="#333"><path style="" d="m198.62 490.15q-3.4961-0.0781-5.918 1.0352-2.4024 1.1133-4.8438 4.2578-2.4219 3.125-3.0859 6.7578-0.64453 3.6328 0.52734 6.2891 1.1719 2.6562 3.2422 4.5898 2.0898 1.9336 5.0781 2.7539 2.9883 0.82032 5.8008-0.0977 2.832-0.91797 6.9141-5.6641l-0.41015-0.21484q-4.6094 4.1406-10.039 2.2656-5.4297-1.875-7.168-6.9141-1.7383-5.0586 0.42969-8.3984t5.6836-3.3984q3.5352-0.0586 4.8242 1.2695 1.3086 1.3281 1.6211 2.2461l4.1602-2.207q-0.15625-1.3086-1.7383-2.9102t-5.0781-1.6602z"/><path style="" d="m215.32 498.45q-3.1836 0.0586-5.2148 1.543-2.0117 1.4844-2.9297 3.3398-0.91797 1.8359-0.9961 4.4727-0.0586 2.6367 1.9141 5.332 1.9726 2.6758 4.8438 3.0859 2.8906 0.41015 5.332-1.0938 2.4609-1.5039 3.7109-3.4375t1.2891-5.0391q0.0586-3.125-2.3633-5.7031-2.4024-2.5781-5.5859-2.5zm-0.85938 2.7344q2.9883 1.0742 4.1992 4.1797 1.2305 3.1055 1.0742 5.0391-0.15625 1.9141-1.7969 2.9688-1.6211 1.0547-4.3359-0.41016-2.6953-1.4844-3.5742-4.7266-0.85937-3.2617 0.29297-5.6836 1.1719-2.4414 4.1406-1.3672z"/><path style="" d="m225.73 499.61v16.68l3.9258-1.6602v-11.699q1.8945-2.3828 4.707-1.9336 2.8125 0.42969 2.7148 3.1641l-0.0195 12.246 3.8281-1.6797v-11.23q0.27344-2.5781-1.6211-3.9258-1.875-1.3672-4.6484-0.89844-2.7539 0.44922-5.1562 3.3398l0.0195-3.8672-3.75 1.4648z"/></g></g></svg>
