<!-- Created with Inkscape (http://www.inkscape.org/) -->
<svg xmlns="http://www.w3.org/2000/svg" height="32" width="64" version="1.1" viewBox="0 0 64.000006 32.000002"><g transform="translate(-183.24 -487.21)"><g fill="#333"><path style="" d="m185.4 491.89v22.422q0 1.6406-0.39063 1.9141h11.992q2.6953-2.0898 5.6055-5.293 2.9297-3.2031 3.0078-8.0469t-3.7109-9.1016q-3.7891-4.2578-12.91-3.418l-3.5938 1.5234zm3.8477 1.6797q7.0312-0.44921 9.5312 2.3438t3.1055 6.6211q0.625 3.8281-0.60547 6.5625-1.2109 2.7344-4.8047 3.2812l-7.207 0.0195-0.0195-18.828z"/><path style="" d="m216.88 498.53q-3.0859-0.46875-5.7812 1.9336-2.6758 2.3828-3.4375 5.6055-0.74219 3.2031 0.2539 5.5469 0.9961 2.3242 2.6563 3.3984t3.9258 1.2109q2.2656 0.13672 4.4531-1.7774 2.207-1.9336 3.5156-4.4141l-0.27344-0.21484q-3.0078 3.1641-6.0938 3.0273-3.0664-0.15625-4.043-1.9336l5.5469-3.0664q4.1406-2.7539 3.2617-5.8008-0.87891-3.0469-3.9844-3.5156zm-6.3281 4.707q0.6836-1.4453 2.4219-2.168 1.7578-0.74219 3.3203 0.78125t1.0742 3.5156q-0.46875 1.9727-5.918 4.7461-0.8789-1.5039-1.2305-3.457-0.35156-1.9726 0.33203-3.418z"/><path style="" d="m229.15 508.39-5.1367 6.8945 0.95703 0.8789 4.9414-6.7188 4.9609 6.7774 2.8906-2.6758-5.3906-7.4219 5.0976-7.0508-0.97656-0.56641-4.9414 6.6797-4.7461-6.8359-2.9883 2.7539 5.332 7.2852z"/></g></g></svg>
