<!-- Created with Inkscape (http://www.inkscape.org/) -->
<svg xmlns="http://www.w3.org/2000/svg" height="56" width="500" version="1.1" viewBox="0 0 499.99999 55.999999"><g transform="translate(-183.24 -463.21)"><g fill="#333" transform="matrix(1.3005 0 0 1.3005 -53.189 -153.03)"><path d="m188.02 504.46v-8.8779q6.3413 0.39927 10.334-3.1707 3.9927-3.5934 3.6639-8.1968-0.32881-4.6033-3.7813-7.4217-3.4525-2.8419-11.062-1.691l-3.2881 1.644-0.0235 29.335 4.1571-1.6206zm-0.0939-13.646-0.094-11.767q5.3549-0.5167 7.8914 1.2448 2.5365 1.738 3.1942 5.6837 0.6811 3.9222-2.2077 5.7542-2.8653 1.8319-7.8445-2.2077l-0.93945 1.2918z"/><path d="m213.48 484.71q-3.8283 0.0705-6.2709 1.8554-2.4191 1.785-3.523 4.0162-1.1039 2.2077-1.1978 5.3784-0.0705 3.1707 2.3017 6.4118 2.3721 3.2176 5.8246 3.7109 3.476 0.49322 6.4118-1.3152 2.9593-1.8085 4.4624-4.1336 1.5031-2.3252 1.5501-6.0595 0.0705-3.7578-2.8419-6.858-2.8888-3.1002-6.7171-3.0063zm-1.0334 3.2881q3.5934 1.2918 5.0496 5.0261 1.4796 3.7343 1.2918 6.0595-0.18789 2.3017-2.1608 3.5699-1.9494 1.2683-5.214-0.49321-3.2411-1.785-4.298-5.6837-1.0334-3.9222 0.3523-6.8346 1.4092-2.9358 4.9791-1.644z"/><path d="m227.58 476.66v4.9556l4.345-1.8084v-5.167l-4.345 2.0198zm-0.14092 9.8878v19.423l4.5094-1.5971v-19.47l-4.5094 1.644z"/><path d="m236.38 486.1v20.057l4.7208-1.9964v-14.068q2.2782-2.8654 5.6602-2.3252 3.382 0.5167 3.2646 3.8048l-0.0235 14.726 4.6033-2.0198v-13.505q0.32881-3.1002-1.9494-4.7208-2.2547-1.644-5.5898-1.0804-3.3116 0.54019-6.2004 4.0162l0.0235-4.6503-4.5094 1.7615z"/><path d="m261.16 479.4v6.5057h-1.0099l-3.9457 3.523h4.9322l-0.25835 8.0089q0.0235 5.7542 3.0298 7.6566 3.0298 1.9024 6.083 0.49322 3.0767-1.4327 4.1806-5.0731l-0.32881-0.54018q-3.0767 3.8753-6.083 2.4426-3.0063-1.4562-2.4896-6.4118l0.16441-6.5997h2.8888l7.1164-3.6404h-10.052l0.0235-8.0793-4.251 1.7145z"/><path d="m291.88 474.8-3.0298 3.3116-0.0235 27.174q5.8951 1.2683 9.4415 0.96295 3.5699-0.28184 6.2239-2.2077 2.6774-1.9259 4.0397-4.6738 1.3622-2.7714 0.61064-6.2004t-3.3351-4.7678q-2.56-1.3387-4.3685-1.1978 4.9322-2.6305 4.9556-7.0929 0.0235-4.4859-6.3648-5.2844l-8.1498-0.0235zm1.5031 4.2745q8.2203-0.63414 8.8779 2.9358 0.65762 3.5699-2.8888 4.8147-3.0767-0.25835-5.989 0.32881v-8.0793zm6.3883 11.579q3.0063 0.46973 5.0496 2.8888 2.0668 2.3956 1.0334 5.1435-1.0099 2.7244-3.8048 3.2176-2.7949 0.49322-8.6195-0.91597l0.0235-10.005q3.3116-0.79854 6.3179-0.32881z"/><path d="m329.37 504.3v-19.588l-4.5564 1.8554v14.209q-1.738 2.1608-4.6973 1.9963-2.9593-0.18789-3.2411-3.476l0.0235-14.491-4.4624 2.2547v13.035q0 3.2411 2.2782 4.7678 2.2782 1.5266 4.4154 1.1273 2.1608-0.39926 5.8951-4.1101v4.1806l4.345-1.7615z"/><path d="m351.16 504.3v-19.588l-4.5564 1.8554v14.209q-1.738 2.1608-5.0496 1.9963-3.3116-0.18789-3.5934-3.476l0.0235-14.491-4.4624 2.2547v13.035q0 3.2411 2.2782 4.7678 2.2782 1.5266 4.7678 1.1273 2.513-0.39926 6.2474-4.1101v5.5898q0.14092 3.2646-1.0334 4.392-1.1743 1.1508-3.9692 0.82203-2.7714-0.32881-5.6133-4.345l-2.9358 4.1336q6.4823 5.5898 12.213 1.644 5.7307-3.9222 5.6837-9.8173z"/><path d="m383.41 474.73q-4.2041-0.094-7.1164 1.2448-2.8888 1.3387-5.8246 5.12-2.9123 3.7578-3.7109 8.1263-0.77505 4.3685 0.63414 7.5626 1.4092 3.1942 3.8988 5.5193 2.513 2.3252 6.1065 3.3116 3.5934 0.98643 6.9755-0.11743 3.4055-1.1039 8.3142-6.8111l-0.49321-0.25835q-5.5428 4.9791-12.072 2.7244t-8.6195-8.3142q-2.0903-6.083 0.51671-10.099 2.607-4.0162 6.8346-4.0866 4.251-0.0705 5.8012 1.5266 1.5736 1.5971 1.9494 2.7009l5.0026-2.654q-0.18789-1.5736-2.0903-3.4995t-6.1065-1.9963z"/><path d="m405.32 484.52q-3.1472-0.23486-6.6467 1.5501-3.476 1.785-3.0532 6.083l5.3784-2.4191q-0.39927-2.9123 2.1608-3.4055 2.56-0.49322 3.9927 0.86899t1.2213 5.4723q-1.5736-1.0334-3.7109-1.3152-2.1138-0.30532-5.5898 1.4796-3.476 1.785-4.345 5.2375-0.84551 3.4525 1.8085 5.7777 2.6774 2.3017 5.167 2.2077 2.4896-0.0939 3.7344-1.0804 1.2448-0.98643 3.0063-2.7949-0.0235 2.9828 0.68111 4.0866l4.6503-2.4896q-1.1743-1.3857-0.93946-3.4995v-9.8408q0.094-2.3017-2.1373-3.9927-2.2312-1.691-5.3784-1.9259zm3.1707 11.156v5.1435q-3.9927 3.1942-7.2573 1.2683-3.2411-1.9259-3.6874-4.7443-0.42275-2.8419 2.8184-2.9358 3.2646-0.11743 6.0125 2.3721l2.1608-2.3252-0.047 1.2213z"/><path d="m417.67 476.7v29.499l4.5329-2.0668v-29.335l-4.5329 1.9024z"/><path d="m437.85 484.76q-4.6268-0.79854-7.821 2.1138-3.1707 2.8888-3.8283 6.858-0.63413 3.9692 0.79854 6.9755t3.8518 4.2276 4.8617 1.2683q2.4661 0.047 4.7443-1.9729 2.2782-2.0433 3.8048-5.5898l-0.32881-0.25835q-3.2176 3.2646-6.2004 3.4525-2.9828 0.1644-4.8852-1.0334t-3.1002-3.5699q-1.1743-2.3721-0.46973-5.4019 0.7046-3.0532 2.9358-3.9927 2.2312-0.96295 4.298 0.18789 2.0903 1.1274 2.9593 4.5564l4.1101-2.7009q-1.1039-4.345-5.7307-5.12z"/><path d="m464.08 504.3v-19.588l-4.5564 1.8554v14.209q-1.738 2.1608-4.6973 1.9963-2.9593-0.18789-3.2411-3.476l0.0235-14.491-4.4624 2.2547v13.035q0 3.2411 2.2782 4.7678 2.2782 1.5266 4.4154 1.1273 2.1608-0.39926 5.8951-4.1101v4.1806l4.345-1.7615z"/><path d="m468.69 476.7v29.499l4.5329-2.0668v-29.335l-4.5329 1.9024z"/><path d="m487.71 484.52q-3.1472-0.23486-6.6467 1.5501-3.476 1.785-3.0532 6.083l5.3784-2.4191q-0.39927-2.9123 2.1608-3.4055 2.56-0.49322 3.9927 0.86899t1.2213 5.4723q-1.5736-1.0334-3.7109-1.3152-2.1138-0.30532-5.5898 1.4796-3.476 1.785-4.345 5.2375-0.84551 3.4525 1.8084 5.7777 2.6775 2.3017 5.167 2.2077 2.4896-0.0939 3.7343-1.0804 1.2448-0.98643 3.0063-2.7949-0.0235 2.9828 0.6811 4.0866l4.6503-2.4896q-1.1743-1.3857-0.93946-3.4995v-9.8408q0.094-2.3017-2.1373-3.9927-2.2312-1.691-5.3784-1.9259zm3.1707 11.156v5.1435q-3.9927 3.1942-7.2573 1.2683-3.2411-1.9259-3.6874-4.7443-0.42276-2.8419 2.8184-2.9358 3.2646-0.11743 6.0125 2.3721l2.1608-2.3252-0.047 1.2213z"/><path d="m502.13 479.4v6.5057h-1.0099l-3.9457 3.523h4.9322l-0.25835 8.0089q0.0235 5.7542 3.0298 7.6566 3.0298 1.9024 6.083 0.49322 3.0767-1.4327 4.1806-5.0731l-0.32881-0.54018q-3.0767 3.8753-6.083 2.4426-3.0063-1.4562-2.4896-6.4118l0.1644-6.5997h2.8888l7.1164-3.6404h-10.052l0.0235-8.0793-4.251 1.7145z"/><path d="m528.15 484.71q-3.8283 0.0705-6.2709 1.8554-2.4191 1.785-3.523 4.0162-1.1039 2.2077-1.1978 5.3784-0.0705 3.1707 2.3017 6.4118 2.3721 3.2176 5.8246 3.7109 3.476 0.49322 6.4118-1.3152 2.9593-1.8085 4.4624-4.1336 1.5031-2.3252 1.5501-6.0595 0.0705-3.7578-2.8419-6.858-2.8888-3.1002-6.7171-3.0063zm-1.0334 3.2881q3.5934 1.2918 5.0496 5.0261 1.4796 3.7343 1.2918 6.0595-0.18789 2.3017-2.1608 3.5699-1.9494 1.2683-5.214-0.49321-3.2411-1.785-4.298-5.6837-1.0334-3.9222 0.35229-6.8346 1.4092-2.9358 4.9791-1.644z"/><path d="m540.67 486.57v19.588l4.5564-2.0903v-13.974q2.2077-2.8654 4.2276-2.3252 2.0198 0.5167 2.2782 3.0298l4.2276-2.7244q-0.46973-2.8888-3.9692-3.3116-3.476-0.42276-6.9755 4.2276l0.0235-4.1806-4.3685 1.7615z"/></g></g></svg>
