<svg xmlns:rdf="http://www.w3.org/1999/02/22-rdf-syntax-ns#" xmlns="http://www.w3.org/2000/svg" height="14.706mm" width="105.4mm" version="1.1" xmlns:cc="http://creativecommons.org/ns#" xmlns:dc="http://purl.org/dc/elements/1.1/" viewBox="0 0 373.46517 52.106145">
<g transform="translate(-183.24 -467.1)">
<g>
<path d="m186.78 478.34q3.9844-2.6562 4.4141-2.6562h10.488q4.6484 0 6.4062 2.8516 0.625 1.0156 0.625 2.4219 0 1.4062-0.44922 2.5977-0.42969 1.1914-1.1719 2.2461-0.74218 1.0352-1.7383 1.9531-0.97656 0.89843-2.0703 1.6602-1.7969 1.2695-3.8672 2.2852-3.6523 1.7969-6.7773 1.7969-0.52735 0-1.0742-0.0391-0.74219 3.2031-1.1523 4.1797-0.85938 2.1094-2.7148 3.4961h6.1524q-0.50782 0.13672-1.6797 1.0352-1.1719 0.8789-1.7578 1.25-0.56641 0.37109-0.97657 0.37109h-6.1914q1.6016-1.1719 2.1094-2.0117 0.72266-1.1523 1.2109-3.2226l4.707-20.215h-4.4922zm5.6055 11.562q3.5352 0.91797 5.1953 0.91797 1.6602 0 2.9297-0.54687 1.2891-0.56641 2.1484-1.5625 1.6992-2.0117 1.6992-5.2734 0-5.0977-8.4375-5.0977h-0.83985l-2.6953 11.562z"/>
<path d="m211.52 504.12q-1.4258 0-2.5195-0.46875-1.0938-0.48828-1.8555-1.3281-1.6211-1.7578-1.6211-4.4141 0-2.9883 2.3047-6.2695 2.1094-3.0078 5.4492-5.0976 3.3789-2.1094 6.3672-2.1094 2.6172 0 4.2578 1.7774 1.5625 1.7188 1.5625 4.3945 0 3.0078-2.2852 6.2695-2.168 3.0859-5.3906 5.1172-3.3594 2.1289-6.2695 2.1289zm9.4336-10.918q0-1.0156-0.37109-2.1875-0.3711-1.1914-1.0938-2.0703-1.582-1.8945-4.3164-1.8945-1.6406 0-2.9102 1.4258-1.6016 1.7774-2.0703 4.9219-0.11719 0.85937-0.11719 1.8945 0 1.0352 0.35157 2.2266 0.35156 1.1719 1.0742 2.0703 1.5625 1.9336 4.3164 1.9336 2.4219 0 3.9062-2.9297 1.2305-2.4414 1.2305-5.3906z"/>
<path d="m239.06 470.65q-0.56641 3.457-0.99609 4.2383-0.11719 0.23438-1.3477 0.9375-1.2109 0.6836-1.6797 0.95703-1.0352 0.58594-1.3867 0.76172 0.64453-2.0508 0.9961-4.2383l4.4141-2.6562zm-8.3008 19.551q0-1.4258-1.2695-1.4258-0.58594 0-1.7383 0.27344 5.8789-3.7695 8.3398-4.9024l-3.2031 13.789q-0.11718 0.50781-0.2539 1.0352-0.11719 0.52735-0.11719 1.0547 0 1.5039 2.1875 1.5039 0.54688 0 1.2695-0.13672-0.625 0.42969-1.2891 0.91797-0.66406 0.48828-1.3672 0.89843-1.6406 0.95704-2.9883 0.95704-1.6016 0-1.9922-0.85938-0.15625-0.35156-0.15625-0.80078 0-0.70313 0.17578-1.4453l2.1484-9.2578q0.25391-1.0156 0.25391-1.6016z"/>
<path d="m255.57 499.85q0 1.6016 1.7578 1.6016 0.72265 0 1.5625-0.29297-1.9922 1.4258-2.7734 1.8945-1.8164 1.0352-3.1836 1.0352-1.7774 0-1.7774-1.6992 0-0.74219 0.44922-2.5391l1.6992-7.3047q0.23438-1.0742 0.23438-1.8164 0-3.1836-3.3203-3.1836-2.832 0-4.043 4.1406-0.3125 1.0742-0.50781 1.9531l-1.4062 6.0352q-0.0781 0.29297-0.0781 0.66406 0 1.2109 1.0742 1.2109 0.42968 0 0.91796-0.19531-3.8281 2.832-5.293 2.832-1.1524 0-1.1524-1.1524 0-0.50781 1.1524-5.2344 1.1523-4.7266 1.543-6.4453 0.48829-2.1484 0.48829-2.5586 0-1.4258-1.8555-1.4258-0.83985 0-1.7383 0.3125 0.74218-0.25391 1.6797-0.97656 1.7774-1.3672 2.4024-1.582 1.25-0.44922 2.207-0.44922 1.6602 0 1.6602 1.4844 0 0.64453-0.3125 1.8945 4.4922-3.2226 7.5977-3.2226 1.4648 0 2.4805 0.80078 1.0742 0.87891 1.0742 2.3047 0 0.39062-0.0977 0.83984l-2.2461 9.6484q-0.19531 0.8789-0.19531 1.4258z"/>
<path d="m265.37 504.16q-2.7148 0-2.7148-3.0469 0-0.89844 0.27344-2.0898l2.832-12.168h-2.5586q0.76172-0.50781 1.5039-0.9961 0.76172-0.48828 1.5234-0.99609l0.625-2.7734q1.2109-0.74218 1.7773-1.1328 0.56641-0.41016 0.89844-0.58594 0.35156-0.17578 0.70312-0.35156 0.89844-0.44922 1.0352-0.58594l-1.0938 4.7656h6.25q-0.33203 0.0586-1.5625 0.95703-2.2852 1.6992-2.8516 1.6992h-2.4609l-2.4414 10.469q-0.2539 1.2109-0.2539 2.2266 0 2.0898 2.6367 2.0898 0.85937 0 1.582-0.3125 0.74219-0.3125 1.0156-0.42968-1.875 2.2461-4.8633 3.0078-0.95703 0.25391-1.8555 0.25391z"/>
<path d="m288.12 478.34q3.9844-2.6562 4.4141-2.6562l9.2188-0.0195q2.5781 0 3.6914 0.46875t1.6797 1.1914 0.5664 2.1094q0 1.3867-0.60547 2.5781-0.60547 1.1719-1.582 2.1289-1.2695 1.25-4.4922 3.125 3.7305 0.41016 5 2.8906 0.44922 0.87891 0.44922 2.1484t-0.625 2.5586q-0.60547 1.2695-1.6406 2.4414-1.0156 1.1523-2.3438 2.168-1.3086 1.0156-2.7148 1.8164-4.043 2.3047-7.3828 2.4609-1.0547 0.0391-2.1094 0.0391h-4.4531q1.1719-1.2891 1.4453-1.7773 0.42969-0.74219 0.78125-2.2461l5-21.426h-4.2969zm5.9961 8.9453q1.8359-0.0781 3.4375-0.0781t2.2852 0.0781q3.457-1.0156 3.457-5.2734 0-3.8086-5.7031-3.8086-0.70313 0-1.3672 0.0391l-2.1094 9.043zm7.3828 10.234q0.50781-1.2109 0.50781-2.5977 0-1.3867-0.39063-2.1875-0.39062-0.80078-1.0547-1.3281-0.66407-0.52734-1.5234-0.83984-0.85938-0.3125-1.8164-0.46875-1.4062-0.23438-3.6914-0.23438-0.42969 1.7969-0.83985 3.5742-0.41015 1.7773-0.68359 2.9492-0.27344 1.1523-0.50781 1.7188-0.21485 0.54687-0.48829 1.0938-0.52734 1.0156-1.3672 1.9336h5.4492q4.8828 0 6.4062-3.6133z"/>
<path d="m327.71 484.79q1.0938 0 1.0938 1.1719 0 0.35156-0.0781 0.70313l-2.8906 12.402q-0.0391 0.21484-0.0781 0.42969-0.0391 0.21484-0.0391 0.42968 0 0.87891 0.52734 1.1914 0.54687 0.29297 1.1719 0.29297 0.91797 0 1.8945-0.3125-0.83985 0.27344-1.4648 0.78125-0.625 0.50781-1.2891 1.0156-1.6211 1.2109-3.3789 1.2109t-1.7578-1.6211q0-0.54688 0.19531-1.5234-5 3.2227-8.3203 3.2227-3.1641 0-3.1641-3.8672 0-1.2109 0.37109-2.8906l1.543-6.582q0.27344-1.25 0.27344-1.875 0-1.6406-1.7188-1.6406-0.70313 0-1.4648 0.29297 0.625-0.44922 1.3477-0.97657 0.72266-0.52734 1.5039-0.97656 1.8359-1.0352 3.2226-1.0352 1.6016 0 1.6016 1.6016 0 0.76172-0.42969 2.5-1.7188 7.0312-1.875 7.9883-0.13672 0.95703-0.13672 1.7188 0 0.76172 0.27344 1.3867 0.27343 0.625 0.78125 0.99609 0.89843 0.70313 2.7734 0.70313 1.25 0 2.8125-1.0547 0.41016-0.27344 0.83985-0.52734l2.4023-10.312q0.11719-0.46875 0.11719-0.95704 0-1.25-1.0156-1.25-0.44921 0-0.9375 0.19532 3.8281-2.832 5.293-2.832z"/>
<path d="m351.02 484.77q1.1719 0 1.1719 1.0938 0 0.25391-0.0586 0.50782l-2.6953 11.523q-1.582 6.6797-5.9961 11.836-3.125 3.6524-7.1094 5.1562-2.0312 0.78125-4.2969 0.78125-1.7578 0-2.7344-0.74219-0.37109-0.29296-0.37109-0.66406 0-0.37109 0.29297-0.72265 0.3125-0.35157 0.78125-0.70313 0.48828-0.33203 1.0742-0.68359 0.58594-0.33203 1.1523-0.625 1.4648-0.76172 1.7774-0.9961-0.70313 0.42969-0.70313 0.9375 0 0.50782 0.39063 0.78125 0.41015 0.29297 0.95703 0.46875 0.99609 0.33203 2.1484 0.33203 1.1719 0 2.2461-0.625 1.0742-0.60546 1.9141-1.6211 0.85938-1.0156 1.4844-2.3047 0.625-1.2891 1.1133-2.6562 0.54687-1.582 1.3867-5.0195-5.0977 3.3203-8.418 3.3203t-3.3203-3.2812q0-0.85937 0.21485-1.7578l1.6211-6.9141q0.44922-2.0703 0.44922-2.9102 0-1.9726-1.582-1.9726-0.64453 0-1.4648 0.27343 2.0508-1.4648 2.8516-1.9336 1.8359-1.0352 3.2226-1.0352 1.6211 0 1.6211 1.582 0 0.76171-0.83985 4.2188-0.83984 3.457-1.1328 4.7461-0.48828 2.0703-0.48828 3.0469 0 0.95704 0.27344 1.582 0.27344 0.625 0.78125 0.99609 0.91797 0.70312 2.7734 0.70312 1.9922 0 3.7305-1.8359l2.28-9.77q0.19531-0.82031 0.19531-1.3086 0-1.1914-1.0156-1.1914-0.48828 0-0.95703 0.19531 0.46875-0.33203 1.1328-0.80078 0.68359-0.48828 1.4258-0.9375 1.7383-1.0742 2.7344-1.0742z"/>
<path d="m391.8 475.28q1.3867 0.35156 1.7188 0.54687 0.35157 0.17578 0.35157 0.33203t-0.35157 0.42969q-0.35156 0.27344-0.89843 0.64453-0.54688 0.35156-1.2109 0.76172-0.64453 0.39063-1.25 0.74219-1.4453 0.83984-1.7383 0.9375 0.0586-0.0586 0.21484-0.15625 0.15625-0.11719 0.33203-0.25391 0.42969-0.33203 0.42969-0.46875t-0.87891-0.48828q-1.7773-0.70312-4.9219-0.70312-3.1445 0-5.8008 1.1133-2.6562 1.1133-4.5117 3.0859-3.8281 4.043-3.8281 10.527 0 4.2773 2.2656 6.8555 2.3828 2.7148 6.6016 2.7148 3.4766 0 9.1016-2.2266-4.3164 3.3789-10.156 4.5898-1.8555 0.3711-3.7891 0.3711-1.9141 0-3.5547-0.6836-1.6211-0.68359-2.7148-1.9141-2.2266-2.4805-2.2266-6.6797 0-5.4688 3.7305-10.391 3.418-4.5117 8.9453-7.3047 5.4492-2.7344 10.801-2.7344 1.9727 0 3.3398 0.35157z"/>
<path d="m396.09 504.18q-5.293 0-5.293-5.2344 0-3.5742 2.1094-7.0117 2.0312-3.3008 5.332-5.3711 3.3984-2.1484 6.9922-2.1484 1.582 0 2.8906 0.48828 1.3281 0.46875 1.9727 0.66407l-2.9883 12.812q-0.21484 1.0156-0.21484 1.5234 0 1.543 1.875 1.543 0.60547 0 1.1719-0.11719-0.60547 0.41016-1.2695 0.89844-0.66406 0.48828-1.3672 0.89844-1.6992 0.97656-2.9883 0.97656-1.4062 0-1.7774-0.70312-0.13672-0.29297-0.13672-0.70313 0-0.64453 0.23438-1.4844-0.72266 0.46875-1.5039 0.99609-0.76172 0.50781-1.582 0.95703-1.9141 1.0156-3.457 1.0156zm-1.0352-7.168q0 4.5312 4.6094 4.5312 0.74219 0 1.6211-0.44922 1.5625-0.82031 1.7578-1.543l2.2461-9.668q-0.54688-1.4648-1.5234-2.1484-0.97656-0.70312-2.3047-0.70312-1.3086 0-2.168 0.50781-0.85937 0.48828-1.543 1.3086-0.6836 0.82031-1.1914 1.875-0.50781 1.0352-0.83984 2.1484-0.66407 2.2266-0.66407 4.1406z"/>
<path d="m419.02 476.94q0-2.0117-1.9141-2.0117-0.42968 0-0.85937 0.0781 1.0547-0.625 2.1094-1.2695 1.0547-0.64453 2.0898-1.1328 2.1484-1.0156 3.9648-1.7969l-6.2695 26.953q-0.13672 0.54687-0.29297 1.1133-0.13672 0.5664-0.13672 1.1133 0 0.52734 0.19532 0.82031 0.19531 0.29297 0.52734 0.44922 0.99609 0.44922 2.7734 0.11719-0.6836 0.46875-1.3867 0.97656-0.6836 0.48828-1.4258 0.89844-1.6602 0.9375-3.1836 0.9375-1.6992 0-1.6992-1.9727 0-0.99609 0.39063-2.5586l4.8633-20.898q0.25391-1.1719 0.25391-1.8164z"/>
<path d="m438.14 488.67q0.13672-0.0781 0.33203-0.3125 0.19531-0.2539 0.19531-0.37109t-0.2539-0.29297q-0.23438-0.17578-0.625-0.3125-0.3711-0.15625-0.83985-0.27344-0.44921-0.13671-0.89843-0.21484-0.97657-0.17578-1.7188-0.17578-0.74219 0-1.6992 0.39062-0.9375 0.39063-1.6797 1.0742-0.74219 0.66407-1.3086 1.5625-0.54688 0.89844-0.89844 1.8945-0.72266 1.9922-0.72266 3.7891 0 1.7773 0.44922 2.8516 0.44922 1.0742 1.25 1.7773 1.6016 1.3867 4.4922 1.3867 2.3438 0 4.7266-1.1719-2.9883 2.5976-6.9531 3.5156-1.2891 0.3125-2.5586 0.3125t-2.3828-0.37109q-1.0938-0.39063-1.875-1.1133-1.6406-1.543-1.6406-4.2578 0-3.3203 2.5976-6.7773 2.4219-3.2227 6.0742-5.3125 3.75-2.1484 6.9531-2.1484 2.1484 0 3.5352 0.85938 0.35156 0.17578 0.35156 0.39062 0 0.21485-0.3125 0.52735-0.3125 0.29297-0.80078 0.66406-0.46875 0.35156-1.0547 0.72266-0.58594 0.37109-1.1328 0.68359-1.2109 0.66406-1.6016 0.70312z"/>
<path d="m461.31 484.79q1.0938 0 1.0938 1.1719 0 0.35156-0.0781 0.70313l-2.8906 12.402q-0.0391 0.21484-0.0781 0.42969-0.0391 0.21484-0.0391 0.42968 0 0.87891 0.52734 1.1914 0.54687 0.29297 1.1719 0.29297 0.91797 0 1.8945-0.3125-0.83985 0.27344-1.4648 0.78125-0.625 0.50781-1.2891 1.0156-1.6211 1.2109-3.3789 1.2109t-1.7578-1.6211q0-0.54688 0.19531-1.5234-5 3.2227-8.3203 3.2227-3.1641 0-3.1641-3.8672 0-1.2109 0.37109-2.8906l1.543-6.582q0.27344-1.25 0.27344-1.875 0-1.6406-1.7188-1.6406-0.70313 0-1.4648 0.29297 0.625-0.44922 1.3477-0.97657 0.72266-0.52734 1.5039-0.97656 1.8359-1.0352 3.2226-1.0352 1.6016 0 1.6016 1.6016 0 0.76172-0.42969 2.5-1.7188 7.0312-1.875 7.9883-0.13672 0.95703-0.13672 1.7188 0 0.76172 0.27344 1.3867 0.27343 0.625 0.78125 0.99609 0.89843 0.70313 2.7734 0.70313 1.25 0 2.8125-1.0547 0.41016-0.27344 0.83985-0.52734l2.4023-10.312q0.11719-0.46875 0.11719-0.95704 0-1.25-1.0156-1.25-0.44921 0-0.9375 0.19532 3.8281-2.832 5.293-2.832z"/>
<path d="m471.52 476.94q0-2.0117-1.9141-2.0117-0.42968 0-0.85937 0.0781 1.0547-0.625 2.1094-1.2695 1.0547-0.64453 2.0898-1.1328 2.1484-1.0156 3.9648-1.7969l-6.2695 26.953q-0.13672 0.54687-0.29297 1.1133-0.13672 0.5664-0.13672 1.1133 0 0.52734 0.19532 0.82031 0.19531 0.29297 0.52734 0.44922 0.99609 0.44922 2.7734 0.11719-0.6836 0.46875-1.3867 0.97656-0.6836 0.48828-1.4258 0.89844-1.6602 0.9375-3.1836 0.9375-1.6992 0-1.6992-1.9727 0-0.99609 0.39063-2.5586l4.8633-20.898q0.25391-1.1719 0.25391-1.8164z"/>
<path d="m481.41 504.18q-5.293 0-5.293-5.2344 0-3.5742 2.1094-7.0117 2.0312-3.3008 5.332-5.3711 3.3984-2.1484 6.9922-2.1484 1.582 0 2.8906 0.48828 1.3281 0.46875 1.9727 0.66407l-2.9883 12.812q-0.21484 1.0156-0.21484 1.5234 0 1.543 1.875 1.543 0.60547 0 1.1719-0.11719-0.60547 0.41016-1.2695 0.89844-0.66406 0.48828-1.3672 0.89844-1.6992 0.97656-2.9883 0.97656-1.4062 0-1.7774-0.70312-0.13672-0.29297-0.13672-0.70313 0-0.64453 0.23438-1.4844-0.72266 0.46875-1.5039 0.99609-0.76172 0.50781-1.582 0.95703-1.9141 1.0156-3.457 1.0156zm-1.0352-7.168q0 4.5312 4.6094 4.5312 0.74219 0 1.6211-0.44922 1.5625-0.82031 1.7578-1.543l2.2461-9.668q-0.54688-1.4648-1.5234-2.1484-0.97656-0.70312-2.3047-0.70312-1.3086 0-2.168 0.50781-0.85937 0.48828-1.543 1.3086-0.6836 0.82031-1.1914 1.875-0.50781 1.0352-0.83984 2.1484-0.66407 2.2266-0.66407 4.1406z"/>
<path d="m502.01 504.16q-2.7148 0-2.7148-3.0469 0-0.89844 0.27344-2.0898l2.832-12.168h-2.5586q0.76172-0.50781 1.5039-0.9961 0.76171-0.48828 1.5234-0.99609l0.625-2.7734q1.2109-0.74218 1.7774-1.1328 0.5664-0.41016 0.89843-0.58594 0.35157-0.17578 0.70313-0.35156 0.89844-0.44922 1.0352-0.58594l-1.0938 4.7656h6.25q-0.33204 0.0586-1.5625 0.95703-2.2852 1.6992-2.8516 1.6992h-2.4609l-2.4414 10.469q-0.25391 1.2109-0.25391 2.2266 0 2.0898 2.6367 2.0898 0.85938 0 1.582-0.3125 0.74219-0.3125 1.0156-0.42968-1.875 2.2461-4.8633 3.0078-0.95703 0.25391-1.8555 0.25391z"/>
<path d="m517.23 504.12q-1.4258 0-2.5195-0.46875-1.0938-0.48828-1.8555-1.3281-1.6211-1.7578-1.6211-4.4141 0-2.9883 2.3047-6.2695 2.1094-3.0078 5.4492-5.0976 3.3789-2.1094 6.3672-2.1094 2.6172 0 4.2578 1.7774 1.5625 1.7188 1.5625 4.3945 0 3.0078-2.2852 6.2695-2.168 3.0859-5.3906 5.1172-3.3594 2.1289-6.2695 2.1289zm9.4336-10.918q0-1.0156-0.3711-2.1875-0.37109-1.1914-1.0938-2.0703-1.582-1.8945-4.3164-1.8945-1.6406 0-2.9102 1.4258-1.6016 1.7774-2.0703 4.9219-0.11719 0.85937-0.11719 1.8945 0 1.0352 0.35156 2.2266 0.35156 1.1719 1.0742 2.0703 1.5625 1.9336 4.3164 1.9336 2.4219 0 3.9062-2.9297 1.2305-2.4414 1.2305-5.3906z"/>
<path d="m539.67 484.67q1.6797 0 1.6797 1.543 0 0.46875-0.19532 1.2891 0.625-0.41016 1.4258-0.9375 0.80079-0.54688 1.6406-1.0352 2.0508-1.1719 3.3203-1.1719 0.76172 0 1.4844 0.42969 1.4062 0.82031 1.7578 0.82031 0.37109 0 0.66406-0.0781 0.3125-0.0976 0.625-0.21484 0.58594-0.23438 1.0938-0.50781-1.9726 2.3047-4.7266 3.1836-0.91797 0.29297-1.582 0.29297-0.66406 0-1.0742-0.19531-0.39063-0.19532-0.80078-0.42969-1.0938-0.625-1.6797-0.625-0.56641 0-0.9375 0.29297t-0.70312 0.78125q-0.3125 0.46875-0.58594 1.0547-0.25391 0.5664-0.44922 1.1523-0.42969 1.1914-0.56641 1.875l-1.7383 7.4805q-0.0976 0.35156-0.0976 0.66406 0 1.2109 1.0938 1.2109 0.42968 0 0.91796-0.19531-0.625 0.44921-1.1328 0.95703-0.50781 0.48828-1.0547 0.89843-1.25 0.97657-2.7148 0.97657-0.60547 0-1.0547-0.3711-0.44922-0.35156-0.44922-0.72265 0-0.42969 0.0391-0.625l2.6172-11.25q0.13672-0.58594 0.3125-1.1914 0.17579-0.60547 0.17579-1.2305 0-1.4258-1.8555-1.4258-0.83985 0-1.7383 0.3125 0.625-0.21484 1.6016-0.9375 1.8164-1.3867 2.4805-1.6016 1.3086-0.46875 2.207-0.46875z"/>
</g>
</g>
</svg>
