<?xml version="1.0" encoding="UTF-8" standalone="no"?>
<!-- Created with Inkscape (http://www.inkscape.org/) -->

<svg
   xmlns:dc="http://purl.org/dc/elements/1.1/"
   xmlns:cc="http://creativecommons.org/ns#"
   xmlns:rdf="http://www.w3.org/1999/02/22-rdf-syntax-ns#"
   xmlns:svg="http://www.w3.org/2000/svg"
   xmlns="http://www.w3.org/2000/svg"
   xmlns:sodipodi="http://sodipodi.sourceforge.net/DTD/sodipodi-0.dtd"
   xmlns:inkscape="http://www.inkscape.org/namespaces/inkscape"
   width="500"
   height="56"
   viewBox="0 0 499.99999 55.999999"
   id="svg2"
   version="1.1"
   inkscape:version="0.91 r13725"
   sodipodi:docname="header.inkscape.svg">
  <defs
     id="defs4" />
  <sodipodi:namedview
     id="base"
     pagecolor="#ffffff"
     bordercolor="#666666"
     borderopacity="1.0"
     inkscape:pageopacity="0.0"
     inkscape:pageshadow="2"
     inkscape:zoom="2.0440677"
     inkscape:cx="29.634479"
     inkscape:cy="9.4193415"
     inkscape:document-units="px"
     inkscape:current-layer="layer1"
     showgrid="false"
     fit-margin-top="1"
     fit-margin-left="0"
     fit-margin-right="1"
     fit-margin-bottom="1"
     inkscape:window-width="3840"
     inkscape:window-height="2037"
     inkscape:window-x="0"
     inkscape:window-y="49"
     inkscape:window-maximized="1"
     units="px" />
  <metadata
     id="metadata7">
    <rdf:RDF>
      <cc:Work
         rdf:about="">
        <dc:format>image/svg+xml</dc:format>
        <dc:type
           rdf:resource="http://purl.org/dc/dcmitype/StillImage" />
        <dc:title></dc:title>
      </cc:Work>
    </rdf:RDF>
  </metadata>
  <g
     inkscape:label="Layer 1"
     inkscape:groupmode="layer"
     id="layer1"
     transform="translate(-183.24219,-463.20907)">
    <g
       style="font-style:normal;font-variant:normal;font-weight:normal;font-stretch:normal;font-size:48.10022354px;line-height:125%;font-family:'Kingthings Exeter';-inkscape-font-specification:'Kingthings Exeter, Normal';text-align:start;letter-spacing:0px;word-spacing:0px;writing-mode:lr-tb;text-anchor:start;fill:#333333;fill-opacity:1;stroke:none;stroke-width:1px;stroke-linecap:butt;stroke-linejoin:miter;stroke-opacity:1"
       id="text4222"
       transform="matrix(1.3004639,0,0,1.3004639,-53.189457,-153.03408)">
      <path
         d="m 188.02428,504.46434 0,-8.87788 q 6.34134,0.39927 10.33403,-3.17067 3.9927,-3.59342 3.66389,-8.19676 -0.32881,-4.60334 -3.78132,-7.42172 -3.4525,-2.84186 -11.06211,-1.69102 l -3.2881,1.64405 -0.0235,29.33456 4.1571,-1.62056 z m -0.0939,-13.64562 -0.094,-11.76671 q 5.35491,-0.5167 7.89144,1.24478 2.53654,1.738 3.19416,5.68372 0.6811,3.92224 -2.20773,5.75418 -2.86534,1.83194 -7.84447,-2.20773 l -0.93945,1.29176 z"
         style="fill:#333333"
         id="path4227"
         inkscape:connector-curvature="0" />
      <path
         d="m 213.48358,484.71224 q -3.82829,0.0705 -6.27088,1.85543 -2.4191,1.78497 -3.52297,4.01618 -1.10386,2.20773 -1.1978,5.3784 -0.0705,3.17067 2.30167,6.41179 2.37213,3.21765 5.82463,3.71086 3.476,0.49322 6.4118,-1.31524 2.95929,-1.80846 4.46242,-4.13361 1.50314,-2.32516 1.55011,-6.0595 0.0705,-3.75783 -2.84186,-6.85804 -2.88883,-3.10021 -6.71712,-3.00627 z m -1.0334,3.2881 q 3.59342,1.29176 5.04958,5.0261 1.47965,3.73434 1.29175,6.0595 -0.18789,2.30167 -2.16075,3.56994 -1.94937,1.26827 -5.21399,-0.49321 -3.24113,-1.78497 -4.29802,-5.68372 -1.0334,-3.92224 0.3523,-6.83456 1.40919,-2.9358 4.97913,-1.64405 z"
         style="fill:#333333"
         id="path4229"
         inkscape:connector-curvature="0" />
      <path
         d="m 227.57544,476.65639 0,4.95564 4.34499,-1.80845 0,-5.16702 -4.34499,2.01983 z m -0.14092,9.88779 0,19.42329 4.5094,-1.59708 0,-19.47026 -4.5094,1.64405 z"
         style="fill:#333333"
         id="path4231"
         inkscape:connector-curvature="0" />
      <path
         d="m 236.38286,486.09794 0,20.05742 4.72077,-1.99635 0,-14.06837 q 2.27819,-2.86535 5.66023,-2.32516 3.38205,0.5167 3.26462,3.8048 l -0.0235,14.726 4.60334,-2.01984 0,-13.5047 q 0.32881,-3.10021 -1.94937,-4.72077 -2.2547,-1.64405 -5.58977,-1.08038 -3.31159,0.54019 -6.20042,4.01618 l 0.0235,-4.65031 -4.50939,1.76148 z"
         style="fill:#333333"
         id="path4233"
         inkscape:connector-curvature="0" />
      <path
         d="m 261.16104,479.40431 0,6.50574 -1.00991,0 -3.94572,3.52297 4.93215,0 -0.25835,8.00887 q 0.0235,5.75418 3.02975,7.65658 3.02975,1.9024 6.08298,0.49322 3.07673,-1.43268 4.18059,-5.07308 l -0.32881,-0.54018 q -3.07672,3.87526 -6.08299,2.44259 -3.00626,-1.45616 -2.48956,-6.4118 l 0.16441,-6.59969 2.88883,0 7.11639,-3.6404 -10.0522,0 0.0235,-8.07933 -4.25105,1.71451 z"
         style="fill:#333333"
         id="path4235"
         inkscape:connector-curvature="0" />
      <path
         d="m 291.8813,474.80097 -3.02975,3.31158 -0.0235,27.17381 q 5.89509,1.26827 9.44154,0.96295 3.56994,-0.28184 6.22391,-2.20773 2.67745,-1.92589 4.03967,-4.6738 1.36221,-2.7714 0.61064,-6.20042 -0.75156,-3.42902 -3.33507,-4.76775 -2.56002,-1.33872 -4.36848,-1.19781 4.93215,-2.63048 4.95564,-7.0929 0.0235,-4.48591 -6.36482,-5.28445 l -8.1498,-0.0235 z m 1.50313,4.27453 q 8.22026,-0.63414 8.87788,2.9358 0.65762,3.56994 -2.88883,4.81472 -3.07673,-0.25835 -5.98905,0.32881 l 0,-8.07933 z m 6.38832,11.57881 q 3.00626,0.46973 5.04958,2.88883 2.06681,2.39562 1.0334,5.14353 -1.00991,2.72443 -3.8048,3.21764 -2.79489,0.49322 -8.61952,-0.91597 l 0.0235,-10.00522 q 3.31159,-0.79854 6.31786,-0.32881 z"
         style="fill:#333333"
         id="path4237"
         inkscape:connector-curvature="0" />
      <path
         d="m 329.36566,504.29993 0,-19.58769 -4.55637,1.85543 0,14.2093 q -1.738,2.16075 -4.69729,1.99634 -2.95929,-0.18789 -3.24113,-3.47599 l 0.0235,-14.49113 -4.46242,2.2547 0,13.03497 q 0,3.24113 2.27818,4.76775 2.27819,1.52661 4.41545,1.12734 2.16075,-0.39926 5.8951,-4.11012 l 0,4.18058 4.34499,-1.76148 z"
         style="fill:#333333"
         id="path4239"
         inkscape:connector-curvature="0" />
      <path
         d="m 351.16107,504.29993 0,-19.58769 -4.55637,1.85543 0,14.2093 q -1.73799,2.16075 -5.04958,1.99634 -3.31159,-0.18789 -3.59342,-3.47599 l 0.0235,-14.49113 -4.46242,2.2547 0,13.03497 q 0,3.24113 2.27818,4.76775 2.27819,1.52661 4.76775,1.12734 2.51305,-0.39926 6.24739,-4.11012 l 0,5.58977 q 0.14092,3.26462 -1.0334,4.39196 -1.17432,1.15084 -3.96921,0.82203 -2.7714,-0.32881 -5.61326,-4.34499 l -2.9358,4.13361 q 6.48226,5.58977 12.21295,1.64405 5.73069,-3.92223 5.68371,-9.81733 z"
         style="fill:#333333"
         id="path4241"
         inkscape:connector-curvature="0" />
      <path
         d="m 383.40796,474.73051 q -4.20407,-0.094 -7.11639,1.24478 -2.88883,1.33872 -5.82464,5.12004 -2.91232,3.75783 -3.71086,8.12631 -0.77505,4.36848 0.63414,7.56263 1.40918,3.19416 3.89875,5.51931 2.51305,2.32516 6.10647,3.31159 3.59343,0.98643 6.97547,-0.11743 3.40554,-1.10386 8.3142,-6.81107 l -0.49321,-0.25835 q -5.5428,4.97913 -12.07203,2.72443 -6.52923,-2.2547 -8.61953,-8.3142 -2.09029,-6.08299 0.51671,-10.09917 2.60699,-4.01618 6.83455,-4.08664 4.25104,-0.0705 5.80115,1.52662 1.57359,1.59708 1.94937,2.70094 l 5.00261,-2.65397 q -0.18789,-1.57359 -2.09029,-3.49948 -1.9024,-1.92588 -6.10647,-1.99634 z"
         style="fill:#333333"
         id="path4243"
         inkscape:connector-curvature="0" />
      <path
         d="m 405.32079,484.52435 q -3.14718,-0.23486 -6.64666,1.55011 -3.47599,1.78497 -3.05323,6.08298 l 5.37839,-2.4191 q -0.39927,-2.91232 2.16075,-3.40553 2.56002,-0.49322 3.9927,0.86899 1.43267,1.36222 1.22129,5.47234 -1.57359,-1.0334 -3.71086,-1.31524 -2.11377,-0.30532 -5.58977,1.47965 -3.47599,1.78497 -4.34499,5.23748 -0.84551,3.4525 1.80846,5.77766 2.67745,2.30167 5.16701,2.20772 2.48957,-0.0939 3.73435,-1.08037 1.24478,-0.98643 3.00626,-2.79489 -0.0235,2.98278 0.68111,4.08664 l 4.65031,-2.48956 q -1.17432,-1.3857 -0.93946,-3.49948 l 0,-9.84082 q 0.094,-2.30167 -2.13726,-3.99269 -2.23121,-1.69102 -5.3784,-1.92589 z m 3.17067,11.15606 0,5.14353 q -3.99269,3.19415 -7.25731,1.26827 -3.24112,-1.92589 -3.68737,-4.74426 -0.42275,-2.84186 2.81838,-2.93581 3.26461,-0.11743 6.01252,2.37213 l 2.16076,-2.32516 -0.047,1.2213 z"
         style="fill:#333333"
         id="path4245"
         inkscape:connector-curvature="0" />
      <path
         d="m 417.67467,476.70337 0,29.49896 4.53289,-2.0668 0,-29.33456 -4.53289,1.9024 z"
         style="fill:#333333"
         id="path4247"
         inkscape:connector-curvature="0" />
      <path
         d="m 437.84951,484.75922 q -4.62682,-0.79854 -7.82098,2.11377 -3.17067,2.88884 -3.82829,6.85804 -0.63413,3.96921 0.79854,6.97548 1.43267,3.00626 3.85178,4.22756 2.4191,1.22129 4.86169,1.26826 2.46607,0.047 4.74426,-1.97286 2.27818,-2.04332 3.8048,-5.58977 l -0.32881,-0.25835 q -3.21764,3.26461 -6.20042,3.45251 -2.98278,0.1644 -4.88518,-1.03341 -1.9024,-1.19781 -3.10021,-3.56994 -1.17432,-2.37213 -0.46973,-5.40188 0.7046,-3.05323 2.93581,-3.99269 2.23121,-0.96295 4.29802,0.18789 2.09029,1.12735 2.95929,4.55637 l 4.11012,-2.70094 q -1.10386,-4.34499 -5.73069,-5.12004 z"
         style="fill:#333333"
         id="path4249"
         inkscape:connector-curvature="0" />
      <path
         d="m 464.08387,504.29993 0,-19.58769 -4.55637,1.85543 0,14.2093 q -1.738,2.16075 -4.69729,1.99634 -2.95929,-0.18789 -3.24113,-3.47599 l 0.0235,-14.49113 -4.46242,2.2547 0,13.03497 q 0,3.24113 2.27818,4.76775 2.27819,1.52661 4.41545,1.12734 2.16075,-0.39926 5.8951,-4.11012 l 0,4.18058 4.34499,-1.76148 z"
         style="fill:#333333"
         id="path4251"
         inkscape:connector-curvature="0" />
      <path
         d="m 468.68722,476.70337 0,29.49896 4.53288,-2.0668 0,-29.33456 -4.53288,1.9024 z"
         style="fill:#333333"
         id="path4253"
         inkscape:connector-curvature="0" />
      <path
         d="m 487.71122,484.52435 q -3.14718,-0.23486 -6.64666,1.55011 -3.47599,1.78497 -3.05324,6.08298 l 5.3784,-2.4191 q -0.39927,-2.91232 2.16075,-3.40553 2.56002,-0.49322 3.99269,0.86899 1.43268,1.36222 1.2213,5.47234 -1.57359,-1.0334 -3.71086,-1.31524 -2.11378,-0.30532 -5.58977,1.47965 -3.47599,1.78497 -4.34499,5.23748 -0.84551,3.4525 1.80845,5.77766 2.67746,2.30167 5.16702,2.20772 2.48956,-0.0939 3.73434,-1.08037 1.24478,-0.98643 3.00627,-2.79489 -0.0235,2.98278 0.6811,4.08664 l 4.65032,-2.48956 q -1.17432,-1.3857 -0.93946,-3.49948 l 0,-9.84082 q 0.094,-2.30167 -2.13726,-3.99269 -2.23122,-1.69102 -5.3784,-1.92589 z m 3.17067,11.15606 0,5.14353 q -3.99269,3.19415 -7.25731,1.26827 -3.24113,-1.92589 -3.68737,-4.74426 -0.42276,-2.84186 2.81837,-2.93581 3.26462,-0.11743 6.01253,2.37213 l 2.16075,-2.32516 -0.047,1.2213 z"
         style="fill:#333333"
         id="path4255"
         inkscape:connector-curvature="0" />
      <path
         d="m 502.13189,479.40431 0,6.50574 -1.00991,0 -3.94573,3.52297 4.93216,0 -0.25835,8.00887 q 0.0235,5.75418 3.02975,7.65658 3.02975,1.9024 6.08298,0.49322 3.07673,-1.43268 4.18059,-5.07308 l -0.32881,-0.54018 q -3.07672,3.87526 -6.08299,2.44259 -3.00626,-1.45616 -2.48956,-6.4118 l 0.1644,-6.59969 2.88884,0 7.11639,-3.6404 -10.0522,0 0.0235,-8.07933 -4.25105,1.71451 z"
         style="fill:#333333"
         id="path4257"
         inkscape:connector-curvature="0" />
      <path
         d="m 528.15488,484.71224 q -3.82829,0.0705 -6.27088,1.85543 -2.4191,1.78497 -3.52296,4.01618 -1.10386,2.20773 -1.19781,5.3784 -0.0705,3.17067 2.30167,6.41179 2.37213,3.21765 5.82464,3.71086 3.47599,0.49322 6.41179,-1.31524 2.9593,-1.80846 4.46243,-4.13361 1.50313,-2.32516 1.5501,-6.0595 0.0705,-3.75783 -2.84186,-6.85804 -2.88883,-3.10021 -6.71712,-3.00627 z m -1.0334,3.2881 q 3.59342,1.29176 5.04958,5.0261 1.47965,3.73434 1.29176,6.0595 -0.18789,2.30167 -2.16076,3.56994 -1.94937,1.26827 -5.21398,-0.49321 -3.24113,-1.78497 -4.29802,-5.68372 -1.03341,-3.92224 0.35229,-6.83456 1.40919,-2.9358 4.97913,-1.64405 z"
         style="fill:#333333"
         id="path4259"
         inkscape:connector-curvature="0" />
      <path
         d="m 540.67316,486.56767 0,19.58769 4.55636,-2.09029 0,-13.97443 q 2.20773,-2.86535 4.22756,-2.32516 2.01984,0.5167 2.27819,3.02975 l 4.22756,-2.72443 q -0.46973,-2.88883 -3.96921,-3.31158 -3.47599,-0.42276 -6.97547,4.22755 l 0.0235,-4.18058 -4.36847,1.76148 z"
         style="fill:#333333"
         id="path4261"
         inkscape:connector-curvature="0" />
    </g>
  </g>
</svg>
