<?xml version="1.0" encoding="UTF-8" standalone="no"?>
<!-- Created with Inkscape (http://www.inkscape.org/) -->

<svg
   xmlns:dc="http://purl.org/dc/elements/1.1/"
   xmlns:cc="http://creativecommons.org/ns#"
   xmlns:rdf="http://www.w3.org/1999/02/22-rdf-syntax-ns#"
   xmlns:svg="http://www.w3.org/2000/svg"
   xmlns="http://www.w3.org/2000/svg"
   xmlns:sodipodi="http://sodipodi.sourceforge.net/DTD/sodipodi-0.dtd"
   xmlns:inkscape="http://www.inkscape.org/namespaces/inkscape"
   width="105.40017mm"
   height="14.705512mm"
   viewBox="0 0 373.46517 52.106145"
   id="svg2"
   version="1.1"
   inkscape:version="0.91 r13725"
   sodipodi:docname="header.inkscape.svg">
  <defs
     id="defs4" />
  <sodipodi:namedview
     id="base"
     pagecolor="#ffffff"
     bordercolor="#666666"
     borderopacity="1.0"
     inkscape:pageopacity="0.0"
     inkscape:pageshadow="2"
     inkscape:zoom="3.3353535"
     inkscape:cx="132.86771"
     inkscape:cy="11.780128"
     inkscape:document-units="px"
     inkscape:current-layer="layer1"
     showgrid="false"
     fit-margin-top="1"
     fit-margin-left="0"
     fit-margin-right="1"
     fit-margin-bottom="1"
     inkscape:window-width="3840"
     inkscape:window-height="2037"
     inkscape:window-x="0"
     inkscape:window-y="49"
     inkscape:window-maximized="1" />
  <metadata
     id="metadata7">
    <rdf:RDF>
      <cc:Work
         rdf:about="">
        <dc:format>image/svg+xml</dc:format>
        <dc:type
           rdf:resource="http://purl.org/dc/dcmitype/StillImage" />
        <dc:title></dc:title>
      </cc:Work>
    </rdf:RDF>
  </metadata>
  <g
     inkscape:label="Layer 1"
     inkscape:groupmode="layer"
     id="layer1"
     transform="translate(-183.24219,-467.10293)">
    <g
       style="font-style:italic;font-variant:normal;font-weight:normal;font-stretch:normal;font-size:40px;line-height:125%;font-family:Fondamento;-inkscape-font-specification:'Fondamento, Italic';text-align:start;letter-spacing:0px;word-spacing:0px;writing-mode:lr-tb;text-anchor:start;fill:#000000;fill-opacity:1;stroke:none;stroke-width:1px;stroke-linecap:butt;stroke-linejoin:miter;stroke-opacity:1"
       id="text4136">
      <path
         d="m 186.77734,478.34155 q 3.98438,-2.65625 4.41407,-2.65625 l 10.48828,0 q 4.64843,0 6.40625,2.85157 0.625,1.01562 0.625,2.42187 0,1.40625 -0.44922,2.59766 -0.42969,1.1914 -1.17188,2.24609 -0.74218,1.03516 -1.73828,1.95313 -0.97656,0.89843 -2.07031,1.66015 -1.79688,1.26953 -3.86719,2.28516 -3.65234,1.79687 -6.77734,1.79687 -0.52735,0 -1.07422,-0.0391 -0.74219,3.20313 -1.15234,4.17969 -0.85938,2.10937 -2.71485,3.49609 l 6.15235,0 q -0.50782,0.13672 -1.67969,1.03516 -1.17188,0.8789 -1.75781,1.25 -0.56641,0.37109 -0.97657,0.37109 l -6.1914,0 q 1.60156,-1.17187 2.10937,-2.01172 0.72266,-1.15234 1.21094,-3.22265 l 4.70703,-20.21485 -4.49219,0 z m 5.60547,11.5625 q 3.53516,0.91797 5.19531,0.91797 1.66016,0 2.92969,-0.54687 1.28906,-0.56641 2.14844,-1.5625 1.69922,-2.01172 1.69922,-5.27344 0,-5.09766 -8.4375,-5.09766 l -0.83985,0 -2.69531,11.5625 z"
         id="path4179"
         inkscape:connector-curvature="0" />
      <path
         d="m 211.52344,504.1228 q -1.42578,0 -2.51953,-0.46875 -1.09375,-0.48828 -1.85547,-1.32812 -1.6211,-1.75781 -1.6211,-4.41406 0,-2.98829 2.30469,-6.26954 2.10938,-3.00781 5.44922,-5.09765 3.37891,-2.10938 6.36719,-2.10938 2.61718,0 4.25781,1.77735 1.5625,1.71875 1.5625,4.39453 0,3.00781 -2.28516,6.26953 -2.16797,3.08594 -5.39062,5.11719 -3.35938,2.1289 -6.26953,2.1289 z m 9.43359,-10.91797 q 0,-1.01562 -0.37109,-2.1875 -0.3711,-1.1914 -1.09375,-2.07031 -1.58203,-1.89453 -4.31641,-1.89453 -1.64062,0 -2.91016,1.42578 -1.60156,1.77735 -2.07031,4.92188 -0.11719,0.85937 -0.11719,1.89453 0,1.03515 0.35157,2.22656 0.35156,1.17188 1.07422,2.07031 1.5625,1.9336 4.3164,1.9336 2.42188,0 3.90625,-2.92969 1.23047,-2.44141 1.23047,-5.39063 z"
         id="path4181"
         inkscape:connector-curvature="0" />
      <path
         d="m 239.0625,470.64624 q -0.56641,3.45703 -0.99609,4.23828 -0.11719,0.23438 -1.34766,0.9375 -1.21094,0.6836 -1.67969,0.95703 -1.03515,0.58594 -1.38672,0.76172 0.64453,-2.05078 0.9961,-4.23828 l 4.41406,-2.65625 z m -8.30078,19.55078 q 0,-1.42578 -1.26953,-1.42578 -0.58594,0 -1.73828,0.27344 5.8789,-3.76953 8.33984,-4.90235 l -3.20313,13.78907 q -0.11718,0.50781 -0.2539,1.03515 -0.11719,0.52735 -0.11719,1.05469 0,1.50391 2.1875,1.50391 0.54688,0 1.26953,-0.13672 -0.625,0.42969 -1.28906,0.91797 -0.66406,0.48828 -1.36719,0.89843 -1.64062,0.95704 -2.98828,0.95704 -1.60156,0 -1.99219,-0.85938 -0.15625,-0.35156 -0.15625,-0.80078 0,-0.70313 0.17578,-1.44531 l 2.14844,-9.25782 q 0.25391,-1.01562 0.25391,-1.60156 z"
         id="path4183"
         inkscape:connector-curvature="0" />
      <path
         d="m 255.56641,499.84546 q 0,1.60156 1.75781,1.60156 0.72265,0 1.5625,-0.29297 -1.99219,1.42578 -2.77344,1.89453 -1.81641,1.03516 -3.18359,1.03516 -1.77735,0 -1.77735,-1.69922 0,-0.74219 0.44922,-2.53906 l 1.69922,-7.30469 q 0.23438,-1.07422 0.23438,-1.8164 0,-3.1836 -3.32032,-3.1836 -2.83203,0 -4.04297,4.14063 -0.3125,1.07422 -0.50781,1.95312 l -1.40625,6.03516 q -0.0781,0.29297 -0.0781,0.66406 0,1.21094 1.07422,1.21094 0.42968,0 0.91796,-0.19531 -3.82812,2.83203 -5.29296,2.83203 -1.15235,0 -1.15235,-1.15235 0,-0.50781 1.15235,-5.23437 1.15234,-4.72656 1.54296,-6.44531 0.48829,-2.14844 0.48829,-2.5586 0,-1.42578 -1.85547,-1.42578 -0.83985,0 -1.73828,0.3125 0.74218,-0.25391 1.67968,-0.97656 1.77735,-1.36719 2.40235,-1.58203 1.25,-0.44922 2.20703,-0.44922 1.66015,0 1.66015,1.48437 0,0.64453 -0.3125,1.89453 4.49219,-3.22265 7.59766,-3.22265 1.46484,0 2.48047,0.80078 1.07422,0.87891 1.07422,2.30469 0,0.39062 -0.0977,0.83984 l -2.24609,9.64844 q -0.19531,0.8789 -0.19531,1.42578 z"
         id="path4185"
         inkscape:connector-curvature="0" />
      <path
         d="m 265.37109,504.16187 q -2.71484,0 -2.71484,-3.04688 0,-0.89844 0.27344,-2.08984 l 2.83203,-12.16797 -2.5586,0 q 0.76172,-0.50781 1.50391,-0.9961 0.76172,-0.48828 1.52344,-0.99609 l 0.625,-2.77344 q 1.21094,-0.74218 1.77734,-1.13281 0.56641,-0.41016 0.89844,-0.58594 0.35156,-0.17578 0.70312,-0.35156 0.89844,-0.44922 1.03516,-0.58594 l -1.09375,4.76563 6.25,0 q -0.33203,0.0586 -1.5625,0.95703 -2.28516,1.69922 -2.85156,1.69922 l -2.46094,0 -2.44141,10.46875 q -0.2539,1.21094 -0.2539,2.22656 0,2.08984 2.63672,2.08984 0.85937,0 1.58203,-0.3125 0.74219,-0.3125 1.01562,-0.42968 -1.875,2.24609 -4.86328,3.00781 -0.95703,0.25391 -1.85547,0.25391 z"
         id="path4187"
         inkscape:connector-curvature="0" />
      <path
         d="m 288.125,478.34155 q 3.98437,-2.65625 4.41406,-2.65625 l 9.21875,-0.0195 q 2.57813,0 3.69141,0.46875 1.11328,0.46875 1.67969,1.19141 0.5664,0.72265 0.5664,2.10937 0,1.38672 -0.60547,2.57813 -0.60547,1.17187 -1.58203,2.1289 -1.26953,1.25 -4.49219,3.125 3.73047,0.41016 5,2.89063 0.44922,0.87891 0.44922,2.14844 0,1.26953 -0.625,2.55859 -0.60547,1.26953 -1.64062,2.44141 -1.01563,1.15234 -2.34375,2.16797 -1.3086,1.01562 -2.71485,1.8164 -4.04296,2.30469 -7.38281,2.46094 -1.05469,0.0391 -2.10937,0.0391 l -4.45313,0 q 1.17188,-1.28906 1.44531,-1.77734 0.42969,-0.74219 0.78125,-2.2461 l 5,-21.42578 -4.29687,0 z m 5.99609,8.94532 q 1.83594,-0.0781 3.4375,-0.0781 1.60157,0 2.28516,0.0781 3.45703,-1.01563 3.45703,-5.27344 0,-3.8086 -5.70312,-3.8086 -0.70313,0 -1.36719,0.0391 l -2.10938,9.04297 z m 7.38282,10.23437 q 0.50781,-1.21094 0.50781,-2.59766 0,-1.38671 -0.39063,-2.1875 -0.39062,-0.80078 -1.05468,-1.32812 -0.66407,-0.52734 -1.52344,-0.83984 -0.85938,-0.3125 -1.81641,-0.46875 -1.40625,-0.23438 -3.6914,-0.23438 -0.42969,1.79688 -0.83985,3.57422 -0.41015,1.77734 -0.68359,2.94922 -0.27344,1.15234 -0.50781,1.71875 -0.21485,0.54687 -0.48829,1.09375 -0.52734,1.01562 -1.36718,1.93359 l 5.44922,0 q 4.88281,0 6.40625,-3.61328 z"
         id="path4189"
         inkscape:connector-curvature="0" />
      <path
         d="m 327.71484,484.78687 q 1.09375,0 1.09375,1.17187 0,0.35156 -0.0781,0.70313 l -2.89063,12.40234 q -0.0391,0.21484 -0.0781,0.42969 -0.0391,0.21484 -0.0391,0.42968 0,0.87891 0.52734,1.19141 0.54687,0.29297 1.17187,0.29297 0.91797,0 1.89454,-0.3125 -0.83985,0.27344 -1.46485,0.78125 -0.625,0.50781 -1.28906,1.01562 -1.62109,1.21094 -3.37891,1.21094 -1.75781,0 -1.75781,-1.62109 0,-0.54688 0.19531,-1.52344 -5,3.22266 -8.32031,3.22266 -3.16406,0 -3.16406,-3.86719 0,-1.21094 0.37109,-2.89063 l 1.54297,-6.58203 q 0.27344,-1.25 0.27344,-1.875 0,-1.64062 -1.71875,-1.64062 -0.70313,0 -1.46485,0.29297 0.625,-0.44922 1.34766,-0.97657 0.72266,-0.52734 1.50391,-0.97656 1.83593,-1.03515 3.22265,-1.03515 1.60157,0 1.60157,1.60156 0,0.76172 -0.42969,2.5 -1.71875,7.03125 -1.875,7.98828 -0.13672,0.95703 -0.13672,1.71875 0,0.76172 0.27344,1.38672 0.27343,0.625 0.78125,0.99609 0.89843,0.70313 2.77343,0.70313 1.25,0 2.8125,-1.05469 0.41016,-0.27344 0.83985,-0.52734 l 2.40234,-10.3125 q 0.11719,-0.46875 0.11719,-0.95704 0,-1.25 -1.01563,-1.25 -0.44921,0 -0.9375,0.19532 3.82813,-2.83203 5.29297,-2.83203 z"
         id="path4191"
         inkscape:connector-curvature="0" />
      <path
         d="m 351.01562,484.76733 q 1.17188,0 1.17188,1.09375 0,0.25391 -0.0586,0.50782 l -2.69532,11.52343 q -1.58203,6.67969 -5.99609,11.83594 -3.125,3.65235 -7.10938,5.15625 -2.03125,0.78125 -4.29687,0.78125 -1.75781,0 -2.73438,-0.74219 -0.37109,-0.29296 -0.37109,-0.66406 0,-0.37109 0.29297,-0.72265 0.3125,-0.35157 0.78125,-0.70313 0.48828,-0.33203 1.07422,-0.68359 0.58594,-0.33203 1.15234,-0.625 1.46485,-0.76172 1.77735,-0.9961 -0.70313,0.42969 -0.70313,0.9375 0,0.50782 0.39063,0.78125 0.41015,0.29297 0.95703,0.46875 0.99609,0.33203 2.14843,0.33203 1.17188,0 2.2461,-0.625 1.07422,-0.60546 1.91406,-1.62109 0.85938,-1.01562 1.48438,-2.30469 0.625,-1.28906 1.11328,-2.65625 0.54687,-1.58203 1.38672,-5.01953 -5.09766,3.32031 -8.41797,3.32031 -3.32032,0 -3.32032,-3.28125 0,-0.85937 0.21485,-1.75781 l 1.62109,-6.91406 q 0.44922,-2.07031 0.44922,-2.91016 0,-1.97265 -1.58203,-1.97265 -0.64453,0 -1.46484,0.27343 2.05078,-1.46484 2.85156,-1.93359 1.83594,-1.03516 3.22265,-1.03516 1.6211,0 1.6211,1.58204 0,0.76171 -0.83985,4.21875 -0.83984,3.45703 -1.13281,4.74609 -0.48828,2.07031 -0.48828,3.04687 0,0.95704 0.27344,1.58204 0.27344,0.625 0.78125,0.99609 0.91797,0.70312 2.77344,0.70312 1.99218,0 3.73046,-1.83593 L 347.5,489.88452 q 0.19531,-0.82031 0.19531,-1.30859 0,-1.19141 -1.01562,-1.19141 -0.48828,0 -0.95703,0.19531 0.46875,-0.33203 1.13281,-0.80078 0.68359,-0.48828 1.42578,-0.9375 1.73828,-1.07422 2.73437,-1.07422 z"
         id="path4193"
         inkscape:connector-curvature="0" />
      <path
         d="m 391.79687,475.27515 q 1.38672,0.35156 1.71875,0.54687 0.35157,0.17578 0.35157,0.33203 0,0.15625 -0.35157,0.42969 -0.35156,0.27344 -0.89843,0.64453 -0.54688,0.35156 -1.21094,0.76172 -0.64453,0.39063 -1.25,0.74219 -1.44531,0.83984 -1.73828,0.9375 0.0586,-0.0586 0.21484,-0.15625 0.15625,-0.11719 0.33203,-0.25391 0.42969,-0.33203 0.42969,-0.46875 0,-0.13672 -0.87891,-0.48828 -1.77734,-0.70312 -4.92187,-0.70312 -3.14453,0 -5.80078,1.11328 -2.65625,1.11328 -4.51172,3.08593 -3.82813,4.04297 -3.82813,10.52735 0,4.27734 2.26563,6.85547 2.38281,2.71484 6.60156,2.71484 3.47656,0 9.10156,-2.22656 -4.3164,3.3789 -10.15625,4.58984 -1.85546,0.3711 -3.78906,0.3711 -1.91406,0 -3.55469,-0.6836 -1.62109,-0.68359 -2.71484,-1.91406 -2.22656,-2.48047 -2.22656,-6.67969 0,-5.46875 3.73047,-10.39062 3.41797,-4.51172 8.94531,-7.30469 5.44922,-2.73438 10.80078,-2.73438 1.97266,0 3.33984,0.35157 z"
         id="path4195"
         inkscape:connector-curvature="0" />
      <path
         d="m 396.09375,504.1814 q -5.29297,0 -5.29297,-5.23438 0,-3.57422 2.10938,-7.01172 2.03125,-3.30078 5.33203,-5.37109 3.39843,-2.14844 6.99218,-2.14844 1.58204,0 2.89063,0.48828 1.32812,0.46875 1.97266,0.66407 l -2.98829,12.8125 q -0.21484,1.01562 -0.21484,1.52343 0,1.54297 1.875,1.54297 0.60547,0 1.17188,-0.11719 -0.60547,0.41016 -1.26954,0.89844 -0.66406,0.48828 -1.36718,0.89844 -1.69922,0.97656 -2.98828,0.97656 -1.40625,0 -1.77735,-0.70312 -0.13672,-0.29297 -0.13672,-0.70313 0,-0.64453 0.23438,-1.48437 -0.72266,0.46875 -1.50391,0.99609 -0.76172,0.50781 -1.58203,0.95703 -1.91406,1.01563 -3.45703,1.01563 z m -1.03516,-7.16797 q 0,4.53125 4.60938,4.53125 0.74219,0 1.62109,-0.44922 1.5625,-0.82031 1.75781,-1.54297 l 2.2461,-9.66797 q -0.54688,-1.46484 -1.52344,-2.14844 -0.97656,-0.70312 -2.30469,-0.70312 -1.30859,0 -2.16797,0.50781 -0.85937,0.48828 -1.54296,1.3086 -0.6836,0.82031 -1.19141,1.875 -0.50781,1.03515 -0.83984,2.14843 -0.66407,2.22657 -0.66407,4.14063 z"
         id="path4197"
         inkscape:connector-curvature="0" />
      <path
         d="m 419.02344,476.9353 q 0,-2.01172 -1.91407,-2.01172 -0.42968,0 -0.85937,0.0781 1.05469,-0.625 2.10937,-1.26953 1.05469,-0.64453 2.08985,-1.13281 2.14844,-1.01563 3.96484,-1.79688 l -6.26953,26.95313 q -0.13672,0.54687 -0.29297,1.11328 -0.13672,0.5664 -0.13672,1.11328 0,0.52734 0.19532,0.82031 0.19531,0.29297 0.52734,0.44922 0.99609,0.44922 2.77344,0.11719 -0.6836,0.46875 -1.38672,0.97656 -0.6836,0.48828 -1.42578,0.89844 -1.66016,0.9375 -3.1836,0.9375 -1.69922,0 -1.69922,-1.97266 0,-0.99609 0.39063,-2.55859 l 4.86328,-20.89844 q 0.25391,-1.17188 0.25391,-1.81641 z"
         id="path4199"
         inkscape:connector-curvature="0" />
      <path
         d="m 438.14453,488.67358 q 0.13672,-0.0781 0.33203,-0.3125 0.19531,-0.2539 0.19531,-0.37109 0,-0.11719 -0.2539,-0.29297 -0.23438,-0.17578 -0.625,-0.3125 -0.3711,-0.15625 -0.83985,-0.27344 -0.44921,-0.13671 -0.89843,-0.21484 -0.97657,-0.17578 -1.71875,-0.17578 -0.74219,0 -1.69922,0.39062 -0.9375,0.39063 -1.67969,1.07422 -0.74219,0.66407 -1.30859,1.5625 -0.54688,0.89844 -0.89844,1.89453 -0.72266,1.99219 -0.72266,3.78907 0,1.77734 0.44922,2.85156 0.44922,1.07422 1.25,1.77734 1.60156,1.38672 4.49219,1.38672 2.34375,0 4.72656,-1.17187 -2.98828,2.59765 -6.95312,3.51562 -1.28907,0.3125 -2.5586,0.3125 -1.26953,0 -2.38281,-0.37109 -1.09375,-0.39063 -1.875,-1.11328 -1.64062,-1.54297 -1.64062,-4.25782 0,-3.32031 2.59765,-6.77734 2.42188,-3.22266 6.07422,-5.3125 3.75,-2.14844 6.95313,-2.14844 2.14843,0 3.53515,0.85938 0.35156,0.17578 0.35156,0.39062 0,0.21485 -0.3125,0.52735 -0.3125,0.29297 -0.80078,0.66406 -0.46875,0.35156 -1.05468,0.72266 -0.58594,0.37109 -1.13282,0.68359 -1.21093,0.66406 -1.60156,0.70312 z"
         id="path4201"
         inkscape:connector-curvature="0" />
      <path
         d="m 461.30859,484.78687 q 1.09375,0 1.09375,1.17187 0,0.35156 -0.0781,0.70313 l -2.89063,12.40234 q -0.0391,0.21484 -0.0781,0.42969 -0.0391,0.21484 -0.0391,0.42968 0,0.87891 0.52734,1.19141 0.54687,0.29297 1.17187,0.29297 0.91797,0 1.89454,-0.3125 -0.83985,0.27344 -1.46485,0.78125 -0.625,0.50781 -1.28906,1.01562 -1.62109,1.21094 -3.37891,1.21094 -1.75781,0 -1.75781,-1.62109 0,-0.54688 0.19531,-1.52344 -5,3.22266 -8.32031,3.22266 -3.16406,0 -3.16406,-3.86719 0,-1.21094 0.37109,-2.89063 l 1.54297,-6.58203 q 0.27344,-1.25 0.27344,-1.875 0,-1.64062 -1.71875,-1.64062 -0.70313,0 -1.46485,0.29297 0.625,-0.44922 1.34766,-0.97657 0.72266,-0.52734 1.50391,-0.97656 1.83593,-1.03515 3.22265,-1.03515 1.60157,0 1.60157,1.60156 0,0.76172 -0.42969,2.5 -1.71875,7.03125 -1.875,7.98828 -0.13672,0.95703 -0.13672,1.71875 0,0.76172 0.27344,1.38672 0.27343,0.625 0.78125,0.99609 0.89843,0.70313 2.77343,0.70313 1.25,0 2.8125,-1.05469 0.41016,-0.27344 0.83985,-0.52734 l 2.40234,-10.3125 q 0.11719,-0.46875 0.11719,-0.95704 0,-1.25 -1.01563,-1.25 -0.44921,0 -0.9375,0.19532 3.82813,-2.83203 5.29297,-2.83203 z"
         id="path4203"
         inkscape:connector-curvature="0" />
      <path
         d="m 471.52344,476.9353 q 0,-2.01172 -1.91407,-2.01172 -0.42968,0 -0.85937,0.0781 1.05469,-0.625 2.10937,-1.26953 1.05469,-0.64453 2.08985,-1.13281 2.14844,-1.01563 3.96484,-1.79688 l -6.26953,26.95313 q -0.13672,0.54687 -0.29297,1.11328 -0.13672,0.5664 -0.13672,1.11328 0,0.52734 0.19532,0.82031 0.19531,0.29297 0.52734,0.44922 0.99609,0.44922 2.77344,0.11719 -0.6836,0.46875 -1.38672,0.97656 -0.6836,0.48828 -1.42578,0.89844 -1.66016,0.9375 -3.1836,0.9375 -1.69922,0 -1.69922,-1.97266 0,-0.99609 0.39063,-2.55859 l 4.86328,-20.89844 q 0.25391,-1.17188 0.25391,-1.81641 z"
         id="path4205"
         inkscape:connector-curvature="0" />
      <path
         d="m 481.40625,504.1814 q -5.29297,0 -5.29297,-5.23438 0,-3.57422 2.10938,-7.01172 2.03125,-3.30078 5.33203,-5.37109 3.39843,-2.14844 6.99218,-2.14844 1.58204,0 2.89063,0.48828 1.32812,0.46875 1.97266,0.66407 l -2.98829,12.8125 q -0.21484,1.01562 -0.21484,1.52343 0,1.54297 1.875,1.54297 0.60547,0 1.17188,-0.11719 -0.60547,0.41016 -1.26954,0.89844 -0.66406,0.48828 -1.36718,0.89844 -1.69922,0.97656 -2.98828,0.97656 -1.40625,0 -1.77735,-0.70312 -0.13672,-0.29297 -0.13672,-0.70313 0,-0.64453 0.23438,-1.48437 -0.72266,0.46875 -1.50391,0.99609 -0.76172,0.50781 -1.58203,0.95703 -1.91406,1.01563 -3.45703,1.01563 z m -1.03516,-7.16797 q 0,4.53125 4.60938,4.53125 0.74219,0 1.62109,-0.44922 1.5625,-0.82031 1.75781,-1.54297 l 2.2461,-9.66797 q -0.54688,-1.46484 -1.52344,-2.14844 -0.97656,-0.70312 -2.30469,-0.70312 -1.30859,0 -2.16797,0.50781 -0.85937,0.48828 -1.54296,1.3086 -0.6836,0.82031 -1.19141,1.875 -0.50781,1.03515 -0.83984,2.14843 -0.66407,2.22657 -0.66407,4.14063 z"
         id="path4207"
         inkscape:connector-curvature="0" />
      <path
         d="m 502.01172,504.16187 q -2.71485,0 -2.71485,-3.04688 0,-0.89844 0.27344,-2.08984 l 2.83203,-12.16797 -2.55859,0 q 0.76172,-0.50781 1.50391,-0.9961 0.76171,-0.48828 1.52343,-0.99609 l 0.625,-2.77344 q 1.21094,-0.74218 1.77735,-1.13281 0.5664,-0.41016 0.89843,-0.58594 0.35157,-0.17578 0.70313,-0.35156 0.89844,-0.44922 1.03516,-0.58594 l -1.09375,4.76563 6.25,0 q -0.33204,0.0586 -1.5625,0.95703 -2.28516,1.69922 -2.85157,1.69922 l -2.46093,0 -2.44141,10.46875 q -0.25391,1.21094 -0.25391,2.22656 0,2.08984 2.63672,2.08984 0.85938,0 1.58203,-0.3125 0.74219,-0.3125 1.01563,-0.42968 -1.875,2.24609 -4.86328,3.00781 -0.95703,0.25391 -1.85547,0.25391 z"
         id="path4209"
         inkscape:connector-curvature="0" />
      <path
         d="m 517.22656,504.1228 q -1.42578,0 -2.51953,-0.46875 -1.09375,-0.48828 -1.85547,-1.32812 -1.62109,-1.75781 -1.62109,-4.41406 0,-2.98829 2.30469,-6.26954 2.10937,-3.00781 5.44921,-5.09765 3.37891,-2.10938 6.36719,-2.10938 2.61719,0 4.25781,1.77735 1.5625,1.71875 1.5625,4.39453 0,3.00781 -2.28515,6.26953 -2.16797,3.08594 -5.39063,5.11719 -3.35937,2.1289 -6.26953,2.1289 z m 9.4336,-10.91797 q 0,-1.01562 -0.3711,-2.1875 -0.37109,-1.1914 -1.09375,-2.07031 -1.58203,-1.89453 -4.3164,-1.89453 -1.64063,0 -2.91016,1.42578 -1.60156,1.77735 -2.07031,4.92188 -0.11719,0.85937 -0.11719,1.89453 0,1.03515 0.35156,2.22656 0.35156,1.17188 1.07422,2.07031 1.5625,1.9336 4.31641,1.9336 2.42187,0 3.90625,-2.92969 1.23047,-2.44141 1.23047,-5.39063 z"
         id="path4211"
         inkscape:connector-curvature="0" />
      <path
         d="m 539.66797,484.66968 q 1.67969,0 1.67969,1.54297 0,0.46875 -0.19532,1.28906 0.625,-0.41016 1.42578,-0.9375 0.80079,-0.54688 1.64063,-1.03516 2.05078,-1.17187 3.32031,-1.17187 0.76172,0 1.48438,0.42969 1.40625,0.82031 1.75781,0.82031 0.37109,0 0.66406,-0.0781 0.3125,-0.0976 0.625,-0.21484 0.58594,-0.23438 1.09375,-0.50781 -1.97265,2.30468 -4.72656,3.18359 -0.91797,0.29297 -1.58203,0.29297 -0.66406,0 -1.07422,-0.19531 -0.39063,-0.19532 -0.80078,-0.42969 -1.09375,-0.625 -1.67969,-0.625 -0.56641,0 -0.9375,0.29297 -0.37109,0.29297 -0.70312,0.78125 -0.3125,0.46875 -0.58594,1.05469 -0.25391,0.5664 -0.44922,1.15234 -0.42969,1.19141 -0.56641,1.875 l -1.73828,7.48047 q -0.0976,0.35156 -0.0976,0.66406 0,1.21094 1.09375,1.21094 0.42968,0 0.91796,-0.19531 -0.625,0.44921 -1.13281,0.95703 -0.50781,0.48828 -1.05469,0.89843 -1.25,0.97657 -2.71484,0.97657 -0.60547,0 -1.05469,-0.3711 -0.44922,-0.35156 -0.44922,-0.72265 0,-0.42969 0.0391,-0.625 l 2.61718,-11.25 q 0.13672,-0.58594 0.3125,-1.19141 0.17579,-0.60547 0.17579,-1.23047 0,-1.42578 -1.85547,-1.42578 -0.83985,0 -1.73828,0.3125 0.625,-0.21484 1.60156,-0.9375 1.8164,-1.38672 2.48047,-1.60156 1.30859,-0.46875 2.20703,-0.46875 z"
         id="path4213"
         inkscape:connector-curvature="0" />
    </g>
  </g>
</svg>
