<!-- Created with Inkscape (http://www.inkscape.org/) -->
<svg xmlns="http://www.w3.org/2000/svg" height="32" width="64" version="1.1" viewBox="0 0 64.000006 32.000002"><g transform="translate(-183.24 -487.21)"><g fill="#333"><path style="" d="m185.92 491.79v24.531l3.7695-1.7188v-24.395l-3.7695 1.582z"/><path style="" d="m192.92 499.61v16.68l3.9258-1.6602v-11.699q1.8945-2.3828 4.707-1.9336 2.8125 0.42969 2.7148 3.1641l-0.0195 12.246 3.8281-1.6797v-11.23q0.27343-2.5781-1.6211-3.9258-1.875-1.3672-4.6484-0.89844-2.7539 0.44922-5.1562 3.3398l0.0195-3.8672-3.75 1.4648z"/><path style="" d="m213.52 494.04v5.4102h-0.83985l-3.2812 2.9297h4.1016l-0.21484 6.6602q0.0195 4.7852 2.5195 6.3672 2.5195 1.582 5.0586 0.41015 2.5586-1.1914 3.4766-4.2188l-0.27344-0.44922q-2.5586 3.2227-5.0586 2.0312-2.5-1.2109-2.0703-5.332l0.13671-5.4883h2.4024l5.918-3.0274h-8.3594l0.0195-6.7188-3.5352 1.4258z"/></g></g></svg>
