<?xml version="1.0" encoding="UTF-8" standalone="no"?>
<!-- Created with Inkscape (http://www.inkscape.org/) -->

<svg
   xmlns:dc="http://purl.org/dc/elements/1.1/"
   xmlns:cc="http://creativecommons.org/ns#"
   xmlns:rdf="http://www.w3.org/1999/02/22-rdf-syntax-ns#"
   xmlns:svg="http://www.w3.org/2000/svg"
   xmlns="http://www.w3.org/2000/svg"
   xmlns:sodipodi="http://sodipodi.sourceforge.net/DTD/sodipodi-0.dtd"
   xmlns:inkscape="http://www.inkscape.org/namespaces/inkscape"
   width="64"
   height="32"
   viewBox="0 0 64.000006 32.000002"
   id="svg2"
   version="1.1"
   inkscape:version="0.91 r13725"
   sodipodi:docname="str.inkscape.svg">
  <defs
     id="defs4" />
  <sodipodi:namedview
     id="base"
     pagecolor="#ffffff"
     bordercolor="#666666"
     borderopacity="1.0"
     inkscape:pageopacity="0.0"
     inkscape:pageshadow="2"
     inkscape:zoom="6.670707"
     inkscape:cx="24.660292"
     inkscape:cy="46.979503"
     inkscape:document-units="px"
     inkscape:current-layer="layer1"
     showgrid="true"
     fit-margin-top="1"
     fit-margin-left="0"
     fit-margin-right="1"
     fit-margin-bottom="1"
     inkscape:window-width="3840"
     inkscape:window-height="2037"
     inkscape:window-x="0"
     inkscape:window-y="49"
     inkscape:window-maximized="1"
     units="px"
     showborder="true"
     inkscape:showpageshadow="true"
     objecttolerance="10000">
    <inkscape:grid
       type="xygrid"
       id="grid4304"
       spacingx="31.999999"
       spacingy="32.000001" />
  </sodipodi:namedview>
  <metadata
     id="metadata7">
    <rdf:RDF>
      <cc:Work
         rdf:about="">
        <dc:format>image/svg+xml</dc:format>
        <dc:type
           rdf:resource="http://purl.org/dc/dcmitype/StillImage" />
        <dc:title></dc:title>
      </cc:Work>
    </rdf:RDF>
  </metadata>
  <g
     inkscape:label="Layer 1"
     inkscape:groupmode="layer"
     id="layer1"
     transform="translate(-183.24219,-487.20915)">
    <g
       style="font-style:normal;font-variant:normal;font-weight:normal;font-stretch:normal;font-size:40.00000763px;line-height:125%;font-family:'Kingthings Exeter';-inkscape-font-specification:'Kingthings Exeter, Normal';text-align:start;letter-spacing:0px;word-spacing:0px;writing-mode:lr-tb;text-anchor:start;fill:#333333;fill-opacity:1;stroke:none;stroke-width:1px;stroke-linecap:butt;stroke-linejoin:miter;stroke-opacity:1"
       id="text4969">
      <path
         d="m 193.22763,490.21069 q -1.75781,0.39062 -3.26172,1.62109 -1.48437,1.21094 -2.51953,2.57813 -1.03516,1.34765 -1.09375,3.49609 -0.0586,2.12891 1.38672,3.71094 1.44531,1.5625 5.54688,2.75391 4.10156,1.1914 5.23437,3.35937 1.15235,2.16797 -0.21484,3.75 -1.34766,1.58204 -3.65235,1.69922 -2.30468,0.11719 -4.25781,-1.38672 -1.95312,-1.52343 -2.5,-3.45703 -0.54687,-1.93359 -0.48828,-2.85156 l -3.02735,2.94922 q -0.39062,1.54297 0.9375,3.53516 1.32813,1.97265 3.69141,3.30078 2.36328,1.32812 5.21485,0.97656 2.85156,-0.35156 5.39062,-3.92578 2.53907,-3.57422 2.48047,-5.60547 -0.0391,-2.05078 -1.54297,-3.59375 -1.5039,-1.54297 -5.89844,-2.71485 -4.39453,-1.17187 -4.82422,-3.57422 -0.42968,-2.40234 1.32813,-3.0664 1.77734,-0.66407 4.0625,0.3125 2.28516,0.97656 2.36328,2.07031 l 2.67578,-2.16797 q -0.48828,-1.99219 -2.87109,-3.08594 -2.38281,-1.09375 -4.16016,-0.68359 z"
         style=""
         id="path4993" />
      <path
         d="m 206.6456,494.03881 0,5.41016 -0.83984,0 -3.28125,2.92969 4.10156,0 -0.21484,6.66016 q 0.0195,4.78515 2.51953,6.36719 2.51953,1.58203 5.0586,0.41015 2.55859,-1.1914 3.47656,-4.21875 l -0.27344,-0.44922 q -2.55859,3.22266 -5.05859,2.03125 -2.5,-1.21093 -2.07032,-5.33203 l 0.13672,-5.48828 2.40235,0 5.91797,-3.02735 -8.35938,0 0.0195,-6.71875 -3.53516,1.42578 z"
         style=""
         id="path4995" />
      <path
         d="m 219.47764,499.99585 0,16.28906 3.78906,-1.73828 0,-11.6211 q 1.83594,-2.38281 3.51563,-1.93359 1.67969,0.42969 1.89453,2.51953 l 3.51562,-2.26562 q -0.39062,-2.40235 -3.30078,-2.75391 -2.89062,-0.35156 -5.80078,3.51563 l 0.0195,-3.47657 -3.63281,1.46485 z"
         style=""
         id="path4997" />
    </g>
  </g>
</svg>
