<!-- Created with Inkscape (http://www.inkscape.org/) -->
<svg xmlns="http://www.w3.org/2000/svg" height="32" width="64" version="1.1" viewBox="0 0 64.000006 32.000002"><g transform="translate(-183.24 -487.21)"><g fill="#333"><path style="" d="m193.23 490.21q-1.7578 0.39062-3.2617 1.6211-1.4844 1.2109-2.5195 2.5781-1.0352 1.3476-1.0938 3.4961-0.0586 2.1289 1.3867 3.7109 1.4453 1.5625 5.5469 2.7539t5.2344 3.3594q1.1524 2.168-0.21484 3.75-1.3477 1.582-3.6524 1.6992-2.3047 0.11719-4.2578-1.3867-1.9531-1.5234-2.5-3.457-0.54687-1.9336-0.48828-2.8516l-3.0274 2.9492q-0.39062 1.543 0.9375 3.5352 1.3281 1.9726 3.6914 3.3008 2.3633 1.3281 5.2148 0.97656 2.8516-0.35156 5.3906-3.9258 2.5391-3.5742 2.4805-5.6055-0.0391-2.0508-1.543-3.5938t-5.8984-2.7148q-4.3945-1.1719-4.8242-3.5742-0.42968-2.4023 1.3281-3.0664 1.7773-0.66407 4.0625 0.3125 2.2852 0.97656 2.3633 2.0703l2.6758-2.168q-0.48828-1.9922-2.8711-3.0859-2.3828-1.0938-4.1602-0.68359z"/><path style="" d="m206.65 494.04v5.4102h-0.83984l-3.2812 2.9297h4.1016l-0.21484 6.6602q0.0195 4.7852 2.5195 6.3672 2.5195 1.582 5.0586 0.41015 2.5586-1.1914 3.4766-4.2188l-0.27344-0.44922q-2.5586 3.2227-5.0586 2.0312-2.5-1.2109-2.0703-5.332l0.13672-5.4883h2.4024l5.918-3.0274h-8.3594l0.0195-6.7188-3.5352 1.4258z"/><path style="" d="m219.48 500v16.289l3.7891-1.7383v-11.621q1.8359-2.3828 3.5156-1.9336 1.6797 0.42969 1.8945 2.5195l3.5156-2.2656q-0.39062-2.4024-3.3008-2.7539-2.8906-0.35156-5.8008 3.5156l0.0195-3.4766-3.6328 1.4648z"/></g></g></svg>
