<?xml version="1.0" encoding="UTF-8" standalone="no"?>
<!-- Created with Inkscape (http://www.inkscape.org/) -->

<svg
   xmlns:dc="http://purl.org/dc/elements/1.1/"
   xmlns:cc="http://creativecommons.org/ns#"
   xmlns:rdf="http://www.w3.org/1999/02/22-rdf-syntax-ns#"
   xmlns:svg="http://www.w3.org/2000/svg"
   xmlns="http://www.w3.org/2000/svg"
   xmlns:sodipodi="http://sodipodi.sourceforge.net/DTD/sodipodi-0.dtd"
   xmlns:inkscape="http://www.inkscape.org/namespaces/inkscape"
   width="64"
   height="32"
   viewBox="0 0 64.000006 32.000002"
   id="svg2"
   version="1.1"
   inkscape:version="0.91 r13725"
   sodipodi:docname="wis.inkscape.svg">
  <defs
     id="defs4" />
  <sodipodi:namedview
     id="base"
     pagecolor="#ffffff"
     bordercolor="#666666"
     borderopacity="1.0"
     inkscape:pageopacity="0.0"
     inkscape:pageshadow="2"
     inkscape:zoom="6.670707"
     inkscape:cx="24.660292"
     inkscape:cy="46.979503"
     inkscape:document-units="px"
     inkscape:current-layer="layer1"
     showgrid="true"
     fit-margin-top="1"
     fit-margin-left="0"
     fit-margin-right="1"
     fit-margin-bottom="1"
     inkscape:window-width="3840"
     inkscape:window-height="2037"
     inkscape:window-x="0"
     inkscape:window-y="49"
     inkscape:window-maximized="1"
     units="px"
     showborder="true"
     inkscape:showpageshadow="true"
     objecttolerance="10000">
    <inkscape:grid
       type="xygrid"
       id="grid4304"
       spacingx="31.999999"
       spacingy="32.000001" />
  </sodipodi:namedview>
  <metadata
     id="metadata7">
    <rdf:RDF>
      <cc:Work
         rdf:about="">
        <dc:format>image/svg+xml</dc:format>
        <dc:type
           rdf:resource="http://purl.org/dc/dcmitype/StillImage" />
        <dc:title></dc:title>
      </cc:Work>
    </rdf:RDF>
  </metadata>
  <g
     inkscape:label="Layer 1"
     inkscape:groupmode="layer"
     id="layer1"
     transform="translate(-183.24219,-487.20915)">
    <g
       style="font-style:normal;font-variant:normal;font-weight:normal;font-stretch:normal;font-size:40.00000763px;line-height:125%;font-family:'Kingthings Exeter';-inkscape-font-specification:'Kingthings Exeter, Normal';text-align:start;letter-spacing:0px;word-spacing:0px;writing-mode:lr-tb;text-anchor:start;fill:#333333;fill-opacity:1;stroke:none;stroke-width:1px;stroke-linecap:butt;stroke-linejoin:miter;stroke-opacity:1"
       id="text4969">
      <path
         d="m 205.12217,516.30444 3.86718,-2.71484 -0.2539,-0.97656 6.13281,-21.91407 -1.64062,-0.50781 -5.70313,20.82031 -7.89063,-20.87891 -3.63281,1.73828 3.28125,8.78907 -3.67187,10.35156 -7.89063,-20.87891 -3.63281,1.73828 9.12109,24.4336 3.86719,-2.71484 -0.25391,-0.97656 3.28125,-9.7461 5.01954,13.4375 z"
         style=""
         id="path5097" />
      <path
         d="m 217.07529,491.75366 0,4.12109 3.61329,-1.5039 0,-4.29688 -3.61329,1.67969 z m -0.11718,8.22266 0,16.15234 3.75,-1.32812 0,-16.19141 -3.75,1.36719 z"
         style=""
         id="path5099" />
      <path
         d="m 231.41123,498.43335 q -1.99218,0.2539 -3.0664,0.8789 -1.05469,0.625 -1.97266,1.69922 -0.89844,1.07422 -0.9375,2.85156 -0.0391,1.77735 1.23047,2.8711 1.28906,1.09375 4.94141,2.34375 3.65234,1.25 4.02343,2.44141 0.39063,1.1914 -0.52734,2.01172 -0.89844,0.80078 -2.55859,0.60546 -1.66016,-0.21484 -2.89063,-1.03515 -1.23047,-0.83985 -2.03125,-1.9336 -0.78125,-1.11328 -0.97656,-1.91406 l -3.02735,2.26563 q 0.66407,1.48437 1.66016,2.48047 0.99609,0.99609 2.5,1.62109 1.52344,0.625 3.65234,0.70312 2.12891,0.0977 3.76954,-1.05468 1.66015,-1.17188 2.53906,-2.53907 0.87891,-1.36718 0.82031,-2.73437 -0.0586,-1.38672 -1.25,-2.57813 -1.17187,-1.1914 -5.07812,-2.5 -3.88672,-1.30859 -4.0625,-2.51953 -0.15625,-1.21094 1.38671,-1.64062 1.54297,-0.44922 3.65235,0.68359 2.10937,1.13281 1.97266,1.77734 l 2.46093,-2.57812 q -0.76172,-1.25 -2.5,-1.85547 -1.71875,-0.60547 -3.73047,-0.35156 z"
         style=""
         id="path5101" />
    </g>
  </g>
</svg>
